<svg width="80" height="351" viewBox="0 0 80 351" fill="none" xmlns="http://www.w3.org/2000/svg">
<path d="M75.975 350.1H71.26V314.68C71.26 309.467 68.6533 306.86 63.44 306.86H54.125C49.755 306.86 47.1867 308.815 46.42 312.725L41.36 337.45C39.6733 345.883 34.0383 350.1 24.455 350.1H18.245C6.515 350.1 0.649993 344.235 0.649993 332.505L0.649993 304.675L4.675 299.5H9.39L9.39 332.62C9.39 337.833 11.9967 340.44 17.21 340.44H25.03C29.4 340.44 31.9683 338.485 32.735 334.575L37.68 309.85C39.3667 301.417 45.04 297.2 54.7 297.2H62.405C74.135 297.2 80 303.065 80 314.795V344.925L75.975 350.1ZM62.405 281.091H18.245C6.515 281.091 0.649993 275.226 0.649993 263.496L0.649993 236.586C0.649993 224.856 6.515 218.991 18.245 218.991H62.405C74.135 218.991 80 224.856 80 236.586V263.496C80 275.226 74.135 281.091 62.405 281.091ZM63.44 271.431C68.6533 271.431 71.26 268.824 71.26 263.611V236.471C71.26 231.258 68.6533 228.651 63.44 228.651H17.21C11.9967 228.651 9.39 231.258 9.39 236.471V263.611C9.39 268.824 11.9967 271.431 17.21 271.431H63.44ZM80 199.419H0.649993L0.649993 162.964C0.649993 151.234 6.515 145.369 18.245 145.369H26.18C28.7867 145.369 31.01 146.135 32.85 147.669L37.68 151.694L41.705 146.864C43.775 144.334 46.8417 143.069 50.905 143.069H62.405C74.135 143.069 80 148.934 80 160.664V199.419ZM71.26 189.759V160.549C71.26 155.335 68.6533 152.729 63.44 152.729H50.56C45.3467 152.729 42.74 155.335 42.74 160.549V189.759H71.26ZM34 189.759L34 162.849C34 157.635 31.3933 155.029 26.18 155.029H17.21C11.9967 155.029 9.39 157.635 9.39 162.849L9.39 189.759H34ZM80 125.41H0.649993L0.649993 87.8048C0.649993 76.0748 6.515 70.2098 18.245 70.2098H30.895C40.8617 70.2098 46.535 74.4648 47.915 82.9748L77.7 67.9098L80 69.1748V77.3398L48.49 93.3248L48.49 115.75H80V125.41ZM39.75 115.75L39.75 87.6898C39.75 82.4764 37.1433 79.8698 31.93 79.8698H17.21C11.9967 79.8698 9.39 82.4764 9.39 87.6898V115.75H39.75ZM80 51.8502H0.649993L0.649993 0.100193H9.39L9.39 42.1902H34L34 3.55019H42.74V42.1902H71.26V0.100193H80V51.8502Z" fill="white"/>
</svg>
