<svg width="1529" height="169" viewBox="0 0 1529 169" fill="none" xmlns="http://www.w3.org/2000/svg">
<g filter="url(#filter0_b_137_250)">
<circle cx="70.5" cy="56" r="53" fill="url(#paint0_linear_137_250)"/>
</g>
<path d="M89.1668 51.9997H87.8335V43.9997C87.8335 43.646 87.693 43.3069 87.443 43.0569C87.1929 42.8068 86.8538 42.6663 86.5002 42.6663H54.5002C54.1845 42.6715 53.8772 42.5644 53.633 42.3642C53.3888 42.164 53.2236 41.8836 53.1668 41.573V41.093C53.2236 40.7824 53.3888 40.502 53.633 40.3018C53.8772 40.1016 54.1845 39.9945 54.5002 39.9997H85.9402C86.2938 39.9997 86.6329 39.8592 86.883 39.6091C87.133 39.3591 87.2735 39.02 87.2735 38.6663C87.2735 38.3127 87.133 37.9736 86.883 37.7235C86.6329 37.4735 86.2938 37.333 85.9402 37.333H54.5002C53.4393 37.333 52.4219 37.7544 51.6718 38.5046C50.9216 39.2547 50.5002 40.2721 50.5002 41.333C50.4908 41.4929 50.4908 41.6531 50.5002 41.813V69.2397C50.5054 69.9576 50.652 70.6674 50.9316 71.3286C51.2111 71.9899 51.6182 72.5896 52.1296 73.0935C52.6409 73.5974 53.2465 73.9957 53.9118 74.2655C54.577 74.5354 55.289 74.6716 56.0068 74.6663H86.5002C86.8538 74.6663 87.1929 74.5259 87.443 74.2758C87.693 74.0258 87.8335 73.6866 87.8335 73.333V65.333H89.1668C89.5205 65.333 89.8596 65.1925 90.1097 64.9425C90.3597 64.6924 90.5002 64.3533 90.5002 63.9997V53.333C90.5002 52.9794 90.3597 52.6402 90.1097 52.3902C89.8596 52.1401 89.5205 51.9997 89.1668 51.9997ZM85.1668 71.9997H56.0068C55.2653 72.0068 54.5508 71.7209 54.019 71.204C53.4871 70.6871 53.1809 69.9812 53.1668 69.2397V45.173C53.5996 45.2984 54.05 45.3525 54.5002 45.333H85.1668V51.9997H75.8335C74.0654 51.9997 72.3697 52.702 71.1195 53.9523C69.8692 55.2025 69.1668 56.8982 69.1668 58.6663C69.1668 60.4344 69.8692 62.1301 71.1195 63.3804C72.3697 64.6306 74.0654 65.333 75.8335 65.333H85.1668V71.9997ZM87.8335 62.6663H75.8335C74.7726 62.6663 73.7552 62.2449 73.0051 61.4948C72.2549 60.7446 71.8335 59.7272 71.8335 58.6663C71.8335 57.6055 72.2549 56.5881 73.0051 55.8379C73.7552 55.0878 74.7726 54.6663 75.8335 54.6663H87.8335V62.6663Z" fill="#F81DFB"/>
<path d="M77.1797 60.667C78.2843 60.667 79.1797 59.7716 79.1797 58.667C79.1797 57.5624 78.2843 56.667 77.1797 56.667C76.0751 56.667 75.1797 57.5624 75.1797 58.667C75.1797 59.7716 76.0751 60.667 77.1797 60.667Z" fill="#908294"/>
<path d="M2.16 161V144.44H12.96V146.264H4.176V152.12H12.24V153.944H4.176V161H2.16ZM18.0908 161C15.6748 161 14.4668 159.792 14.4668 157.376C14.4668 154.96 15.6748 153.752 18.0908 153.752H22.4828V151.88C22.4828 150.76 21.9228 150.2 20.8028 150.2H15.6668V149.24L16.6268 148.52H20.8028C23.2028 148.52 24.4028 149.72 24.4028 152.12V161H18.0908ZM16.3867 157.64C16.3867 158.76 16.9468 159.32 18.0668 159.32H22.4828V155.312H18.0668C16.9468 155.312 16.3867 155.872 16.3867 156.992V157.64ZM27.9546 157.4V152.12C27.9546 149.72 29.1546 148.52 31.5546 148.52H36.2586L37.2186 149.24V150.2H31.5546C30.4346 150.2 29.8746 150.76 29.8746 151.88V157.64C29.8746 158.76 30.4346 159.32 31.5546 159.32H37.2186V160.28L36.2586 161H31.5546C29.1546 161 27.9546 159.8 27.9546 157.4ZM30.4026 163.928H32.7546C33.2986 163.928 33.5706 163.656 33.5706 163.112V160.16H35.1066V162.92C35.1066 164.52 34.3066 165.32 32.7066 165.32H31.1706L30.4026 164.72V163.928ZM43.1923 161C40.7763 161 39.5683 159.792 39.5683 157.376C39.5683 154.96 40.7763 153.752 43.1923 153.752H47.5843V151.88C47.5843 150.76 47.0243 150.2 45.9043 150.2H40.7683V149.24L41.7283 148.52H45.9043C48.3043 148.52 49.5043 149.72 49.5043 152.12V161H43.1923ZM41.4883 157.64C41.4883 158.76 42.0483 159.32 43.1683 159.32H47.5843V155.312H43.1683C42.0483 155.312 41.4883 155.872 41.4883 156.992V157.64ZM59.0138 157.328V148.112C59.0138 145.664 60.2378 144.44 62.6858 144.44H68.3018C70.7498 144.44 71.9738 145.664 71.9738 148.112V157.328C71.9738 159.776 70.7498 161 68.3018 161H62.6858C60.2378 161 59.0138 159.776 59.0138 157.328ZM61.0298 157.544C61.0298 158.632 61.5738 159.176 62.6618 159.176H68.3258C69.4138 159.176 69.9578 158.632 69.9578 157.544V147.896C69.9578 146.808 69.4138 146.264 68.3258 146.264H62.6618C61.5738 146.264 61.0298 146.808 61.0298 147.896V157.544ZM81.8241 161V144.44H83.8401V159.176H91.9041V161H81.8241ZM94.2124 157.4V152.12C94.2124 149.72 95.4124 148.52 97.8124 148.52H101.172C103.572 148.52 104.772 149.72 104.772 152.12V157.4C104.772 159.8 103.572 161 101.172 161H97.8124C95.4124 161 94.2124 159.8 94.2124 157.4ZM96.1324 157.64C96.1324 158.76 96.6924 159.32 97.8124 159.32H101.172C102.292 159.32 102.852 158.76 102.852 157.64V151.88C102.852 150.76 102.292 150.2 101.172 150.2H97.8124C96.6924 150.2 96.1324 150.76 96.1324 151.88V157.64ZM108.228 157.4V152.12C108.228 149.72 109.428 148.52 111.828 148.52H118.548V162.2C118.548 164.6 117.348 165.8 114.948 165.8H110.148L109.188 165.08V164.12H114.948C116.068 164.12 116.628 163.56 116.628 162.44V161H111.828C109.428 161 108.228 159.8 108.228 157.4ZM110.148 157.64C110.148 158.76 110.708 159.32 111.828 159.32H116.628V150.2H111.828C110.708 150.2 110.148 150.76 110.148 151.88V157.64ZM122.293 146.192V143.936H124.405V146.192H122.293ZM122.389 161V148.52H124.309V161H122.389ZM128.154 161V148.52H134.874C137.274 148.52 138.474 149.72 138.474 152.12V161H136.554V151.88C136.554 150.76 135.994 150.2 134.874 150.2H130.074V161H128.154Z" fill="white"/>
<path d="M156 85C155.448 85 155 85.4477 155 86C155 86.5523 155.448 87 156 87L156 85ZM327.774 86L322 80.2265L316.227 86L322 91.7735L327.774 86ZM161.929 87C162.481 87 162.929 86.5523 162.929 86C162.929 85.4477 162.481 85 161.929 85L161.929 87ZM173.786 85C173.233 85 172.786 85.4477 172.786 86C172.786 86.5523 173.233 87 173.786 87L173.786 85ZM185.643 87C186.195 87 186.643 86.5523 186.643 86C186.643 85.4477 186.195 85 185.643 85L185.643 87ZM197.5 85C196.948 85 196.5 85.4477 196.5 86C196.5 86.5523 196.948 87 197.5 87L197.5 85ZM209.357 87C209.909 87 210.357 86.5523 210.357 86C210.357 85.4477 209.909 85 209.357 85L209.357 87ZM221.214 85C220.662 85 220.214 85.4477 220.214 86C220.214 86.5523 220.662 87 221.214 87L221.214 85ZM233.071 87C233.624 87 234.071 86.5523 234.071 86C234.071 85.4477 233.624 85 233.071 85L233.071 87ZM244.929 85C244.376 85 243.929 85.4477 243.929 86C243.929 86.5523 244.376 87 244.929 87L244.929 85ZM256.786 87C257.338 87 257.786 86.5523 257.786 86C257.786 85.4477 257.338 85 256.786 85L256.786 87ZM268.643 85C268.091 85 267.643 85.4477 267.643 86C267.643 86.5523 268.091 87 268.643 87L268.643 85ZM280.5 87C281.052 87 281.5 86.5523 281.5 86C281.5 85.4477 281.052 85 280.5 85L280.5 87ZM292.357 85C291.805 85 291.357 85.4477 291.357 86C291.357 86.5523 291.805 87 292.357 87L292.357 85ZM304.214 87C304.767 87 305.214 86.5523 305.214 86C305.214 85.4477 304.767 85 304.214 85L304.214 87ZM316.071 85C315.519 85 315.071 85.4477 315.071 86C315.071 86.5523 315.519 87 316.071 87L316.071 85ZM156 87L161.929 87L161.929 85L156 85L156 87ZM173.786 87L185.643 87L185.643 85L173.786 85L173.786 87ZM197.5 87L209.357 87L209.357 85L197.5 85L197.5 87ZM221.214 87L233.071 87L233.071 85L221.214 85L221.214 87ZM244.929 87L256.786 87L256.786 85L244.929 85L244.929 87ZM268.643 87L280.5 87L280.5 85L268.643 85L268.643 87ZM292.357 87L304.214 87L304.214 85L292.357 85L292.357 87ZM316.071 87L322 87L322 85L316.071 85L316.071 87Z" fill="white"/>
<g filter="url(#filter1_b_137_250)">
<circle cx="438.5" cy="56" r="53" fill="url(#paint1_linear_137_250)"/>
</g>
<g clip-path="url(#clip0_137_250)">
<path d="M422 42.5C421.602 42.5 421.221 42.342 420.939 42.0607C420.658 41.7794 420.5 41.3978 420.5 41C420.5 40.6022 420.658 40.2206 420.939 39.9393C421.221 39.658 421.602 39.5 422 39.5H455C455.398 39.5 455.779 39.658 456.061 39.9393C456.342 40.2206 456.5 40.6022 456.5 41C456.5 41.3978 456.342 41.7794 456.061 42.0607C455.779 42.342 455.398 42.5 455 42.5H422ZM428 36.5C427.602 36.5 427.221 36.342 426.939 36.0607C426.658 35.7794 426.5 35.3978 426.5 35C426.5 34.6022 426.658 34.2206 426.939 33.9393C427.221 33.658 427.602 33.5 428 33.5H449C449.398 33.5 449.779 33.658 450.061 33.9393C450.342 34.2206 450.5 34.6022 450.5 35C450.5 35.3978 450.342 35.7794 450.061 36.0607C449.779 36.342 449.398 36.5 449 36.5H428ZM414.5 71C414.5 72.1935 414.974 73.3381 415.818 74.182C416.662 75.0259 417.807 75.5 419 75.5H458C459.193 75.5 460.338 75.0259 461.182 74.182C462.026 73.3381 462.5 72.1935 462.5 71V50C462.5 48.8065 462.026 47.6619 461.182 46.818C460.338 45.9741 459.193 45.5 458 45.5H419C417.807 45.5 416.662 45.9741 415.818 46.818C414.974 47.6619 414.5 48.8065 414.5 50V71ZM419 72.5C418.602 72.5 418.221 72.342 417.939 72.0607C417.658 71.7794 417.5 71.3978 417.5 71V50C417.5 49.6022 417.658 49.2206 417.939 48.9393C418.221 48.658 418.602 48.5 419 48.5H458C458.398 48.5 458.779 48.658 459.061 48.9393C459.342 49.2206 459.5 49.6022 459.5 50V71C459.5 71.3978 459.342 71.7794 459.061 72.0607C458.779 72.342 458.398 72.5 458 72.5H419Z" fill="#F81DFB"/>
</g>
<path d="M401.943 147.824H393.399V151.856H400.143V154.52H393.399V161H390.087V145.16H401.943V147.824ZM410.162 153.344C410.162 152.656 409.962 152.12 409.562 151.736C409.178 151.352 408.666 151.16 408.026 151.16C407.434 151.16 406.914 151.312 406.466 151.616C406.018 151.92 405.69 152.424 405.482 153.128L402.674 152.264C402.946 151.208 403.538 150.36 404.45 149.72C405.378 149.08 406.618 148.76 408.17 148.76C409.226 148.76 410.146 148.928 410.93 149.264C411.714 149.584 412.322 150.072 412.754 150.728C413.202 151.384 413.426 152.208 413.426 153.2V158.072C413.426 158.68 413.714 158.984 414.29 158.984C414.562 158.984 414.818 158.944 415.058 158.864L414.866 160.904C414.45 161.112 413.93 161.216 413.306 161.216C412.746 161.216 412.242 161.12 411.794 160.928C411.346 160.736 410.994 160.448 410.738 160.064C410.482 159.664 410.354 159.168 410.354 158.576V158.48L410.93 158.384C410.834 158.992 410.57 159.512 410.138 159.944C409.706 160.36 409.178 160.68 408.554 160.904C407.946 161.128 407.314 161.24 406.658 161.24C405.842 161.24 405.138 161.12 404.546 160.88C403.954 160.624 403.498 160.256 403.178 159.776C402.858 159.296 402.698 158.704 402.698 158C402.698 157.104 402.986 156.376 403.562 155.816C404.138 155.24 404.962 154.848 406.034 154.64L410.546 153.728L410.522 155.768L407.642 156.344C407.098 156.456 406.682 156.608 406.394 156.8C406.122 156.976 405.986 157.272 405.986 157.688C405.986 158.088 406.13 158.392 406.418 158.6C406.722 158.808 407.082 158.912 407.498 158.912C407.834 158.912 408.162 158.872 408.482 158.792C408.802 158.712 409.09 158.584 409.346 158.408C409.602 158.232 409.802 157.992 409.946 157.688C410.09 157.384 410.162 157.016 410.162 156.584V153.344ZM422.504 148.76C423.576 148.76 424.48 148.92 425.216 149.24C425.968 149.544 426.568 149.968 427.016 150.512C427.48 151.04 427.808 151.632 428 152.288L424.928 153.392C424.768 152.672 424.496 152.128 424.112 151.76C423.728 151.392 423.208 151.208 422.552 151.208C421.944 151.208 421.424 151.352 420.992 151.64C420.56 151.912 420.232 152.336 420.008 152.912C419.784 153.472 419.672 154.176 419.672 155.024C419.672 155.872 419.784 156.576 420.008 157.136C420.248 157.696 420.584 158.112 421.016 158.384C421.464 158.656 421.984 158.792 422.576 158.792C423.056 158.792 423.464 158.712 423.8 158.552C424.136 158.376 424.408 158.128 424.616 157.808C424.84 157.488 424.992 157.104 425.072 156.656L428.048 157.616C427.872 158.336 427.544 158.968 427.064 159.512C426.584 160.056 425.968 160.48 425.216 160.784C424.464 161.088 423.592 161.24 422.6 161.24C421.368 161.24 420.28 160.992 419.336 160.496C418.392 160 417.664 159.288 417.152 158.36C416.64 157.432 416.384 156.312 416.384 155C416.384 153.688 416.64 152.568 417.152 151.64C417.664 150.712 418.384 150 419.312 149.504C420.24 149.008 421.304 148.76 422.504 148.76ZM420.848 160.808L421.832 160.184C422.984 160.408 423.816 160.776 424.328 161.288C424.856 161.8 425.12 162.448 425.12 163.232C425.12 164.096 424.824 164.8 424.232 165.344C423.656 165.888 422.88 166.16 421.904 166.16C421.344 166.16 420.872 166.088 420.488 165.944C420.12 165.816 419.8 165.656 419.528 165.464L420.104 163.712C420.312 163.84 420.528 163.952 420.752 164.048C420.992 164.144 421.28 164.192 421.616 164.192C422.032 164.192 422.376 164.064 422.648 163.808C422.92 163.552 423.056 163.192 423.056 162.728C423.056 162.328 422.896 161.984 422.576 161.696C422.256 161.408 421.68 161.112 420.848 160.808ZM437.443 153.344C437.443 152.656 437.243 152.12 436.843 151.736C436.459 151.352 435.947 151.16 435.307 151.16C434.715 151.16 434.195 151.312 433.747 151.616C433.299 151.92 432.971 152.424 432.763 153.128L429.955 152.264C430.227 151.208 430.819 150.36 431.731 149.72C432.659 149.08 433.899 148.76 435.451 148.76C436.507 148.76 437.427 148.928 438.211 149.264C438.995 149.584 439.603 150.072 440.035 150.728C440.483 151.384 440.707 152.208 440.707 153.2V158.072C440.707 158.68 440.995 158.984 441.571 158.984C441.843 158.984 442.099 158.944 442.339 158.864L442.147 160.904C441.731 161.112 441.211 161.216 440.587 161.216C440.027 161.216 439.523 161.12 439.075 160.928C438.627 160.736 438.275 160.448 438.019 160.064C437.763 159.664 437.635 159.168 437.635 158.576V158.48L438.211 158.384C438.115 158.992 437.851 159.512 437.419 159.944C436.987 160.36 436.459 160.68 435.835 160.904C435.227 161.128 434.595 161.24 433.939 161.24C433.123 161.24 432.419 161.12 431.827 160.88C431.235 160.624 430.779 160.256 430.459 159.776C430.139 159.296 429.979 158.704 429.979 158C429.979 157.104 430.267 156.376 430.843 155.816C431.419 155.24 432.243 154.848 433.315 154.64L437.827 153.728L437.803 155.768L434.923 156.344C434.379 156.456 433.963 156.608 433.675 156.8C433.403 156.976 433.267 157.272 433.267 157.688C433.267 158.088 433.411 158.392 433.699 158.6C434.003 158.808 434.363 158.912 434.779 158.912C435.115 158.912 435.443 158.872 435.763 158.792C436.083 158.712 436.371 158.584 436.627 158.408C436.883 158.232 437.083 157.992 437.227 157.688C437.371 157.384 437.443 157.016 437.443 156.584V153.344ZM457.489 144.92C458.929 144.92 460.193 145.168 461.281 145.664C462.369 146.16 463.297 146.896 464.065 147.872L462.217 150.008C461.561 149.176 460.841 148.568 460.057 148.184C459.289 147.784 458.393 147.584 457.369 147.584C456.697 147.584 456.137 147.672 455.689 147.848C455.257 148.024 454.937 148.256 454.729 148.544C454.537 148.832 454.441 149.152 454.441 149.504C454.441 149.936 454.609 150.304 454.945 150.608C455.281 150.896 455.857 151.136 456.673 151.328L459.625 152C461.193 152.352 462.313 152.88 462.985 153.584C463.673 154.272 464.017 155.168 464.017 156.272C464.017 157.312 463.745 158.208 463.201 158.96C462.657 159.696 461.897 160.264 460.921 160.664C459.945 161.048 458.825 161.24 457.561 161.24C456.457 161.24 455.441 161.112 454.513 160.856C453.601 160.584 452.785 160.216 452.065 159.752C451.345 159.288 450.745 158.752 450.265 158.144L452.137 155.912C452.505 156.424 452.961 156.88 453.505 157.28C454.049 157.68 454.665 158 455.353 158.24C456.057 158.464 456.793 158.576 457.561 158.576C458.217 158.576 458.769 158.504 459.217 158.36C459.681 158.2 460.025 157.984 460.249 157.712C460.489 157.424 460.609 157.08 460.609 156.68C460.609 156.264 460.465 155.912 460.177 155.624C459.905 155.32 459.393 155.088 458.641 154.928L455.425 154.208C454.497 153.984 453.697 153.696 453.025 153.344C452.369 152.976 451.865 152.512 451.513 151.952C451.177 151.376 451.009 150.696 451.009 149.912C451.009 148.968 451.265 148.12 451.777 147.368C452.289 146.616 453.025 146.024 453.985 145.592C454.961 145.144 456.129 144.92 457.489 144.92ZM472.382 161.24C471.118 161.24 470.014 160.992 469.07 160.496C468.142 160 467.422 159.288 466.91 158.36C466.398 157.432 466.142 156.312 466.142 155C466.142 153.688 466.398 152.568 466.91 151.64C467.422 150.712 468.134 150 469.046 149.504C469.974 149.008 471.03 148.76 472.214 148.76C473.43 148.76 474.462 149.008 475.31 149.504C476.158 149.984 476.806 150.648 477.254 151.496C477.702 152.328 477.926 153.28 477.926 154.352C477.926 154.672 477.918 154.976 477.902 155.264C477.886 155.552 477.862 155.808 477.83 156.032H468.254V153.752H476.39L474.806 154.328C474.806 153.32 474.574 152.544 474.11 152C473.662 151.456 473.022 151.184 472.19 151.184C471.582 151.184 471.054 151.328 470.606 151.616C470.174 151.904 469.846 152.336 469.622 152.912C469.398 153.472 469.286 154.184 469.286 155.048C469.286 155.896 469.406 156.6 469.646 157.16C469.902 157.704 470.254 158.112 470.702 158.384C471.166 158.656 471.718 158.792 472.358 158.792C473.062 158.792 473.63 158.656 474.062 158.384C474.494 158.112 474.83 157.736 475.07 157.256L477.686 158.264C477.43 158.888 477.038 159.424 476.51 159.872C475.998 160.32 475.382 160.664 474.662 160.904C473.958 161.128 473.198 161.24 472.382 161.24ZM484.888 161.24C484.088 161.24 483.368 161.096 482.728 160.808C482.088 160.52 481.576 160.064 481.192 159.44C480.824 158.8 480.64 157.976 480.64 156.968V149H483.928V156.176C483.928 157.104 484.12 157.752 484.504 158.12C484.888 158.472 485.44 158.648 486.16 158.648C486.496 158.648 486.824 158.592 487.144 158.48C487.464 158.352 487.744 158.16 487.984 157.904C488.24 157.648 488.44 157.32 488.584 156.92C488.728 156.504 488.8 156.016 488.8 155.456V149H492.088V161H489.16L489.04 158.912C488.64 159.712 488.088 160.304 487.384 160.688C486.696 161.056 485.864 161.24 484.888 161.24ZM516.174 145.16L510.414 161H506.55L500.766 145.16H504.27L507.606 155.24L508.518 158.36L509.406 155.264L512.766 145.16H516.174ZM522.419 148.76C523.635 148.76 524.699 149.008 525.611 149.504C526.539 150 527.259 150.712 527.771 151.64C528.299 152.568 528.563 153.688 528.563 155C528.563 156.296 528.299 157.416 527.771 158.36C527.259 159.288 526.539 160 525.611 160.496C524.699 160.992 523.635 161.24 522.419 161.24C521.219 161.24 520.155 160.992 519.227 160.496C518.299 160 517.571 159.288 517.043 158.36C516.531 157.416 516.275 156.296 516.275 155C516.275 153.688 516.531 152.568 517.043 151.64C517.571 150.712 518.299 150 519.227 149.504C520.155 149.008 521.219 148.76 522.419 148.76ZM522.419 151.208C521.811 151.208 521.291 151.352 520.859 151.64C520.443 151.912 520.123 152.328 519.899 152.888C519.675 153.448 519.563 154.152 519.563 155C519.563 155.848 519.675 156.552 519.899 157.112C520.123 157.672 520.443 158.096 520.859 158.384C521.291 158.656 521.811 158.792 522.419 158.792C523.011 158.792 523.515 158.656 523.931 158.384C524.363 158.096 524.691 157.672 524.915 157.112C525.139 156.552 525.251 155.848 525.251 155C525.251 154.152 525.139 153.448 524.915 152.888C524.691 152.328 524.363 151.912 523.931 151.64C523.515 151.352 523.011 151.208 522.419 151.208ZM535.445 145.328V157.088C535.445 157.664 535.589 158.088 535.877 158.36C536.181 158.616 536.589 158.744 537.101 158.744C537.501 158.744 537.853 158.688 538.157 158.576C538.461 158.448 538.733 158.28 538.973 158.072L539.501 160.256C539.117 160.56 538.637 160.8 538.061 160.976C537.485 161.152 536.877 161.24 536.237 161.24C535.437 161.24 534.725 161.12 534.101 160.88C533.493 160.64 533.013 160.256 532.661 159.728C532.325 159.2 532.157 158.496 532.157 157.616V146.24L535.445 145.328ZM539.285 149V151.448H529.949V149H539.285ZM546.981 148.76C548.197 148.76 549.261 149.008 550.173 149.504C551.101 150 551.821 150.712 552.333 151.64C552.861 152.568 553.125 153.688 553.125 155C553.125 156.296 552.861 157.416 552.333 158.36C551.821 159.288 551.101 160 550.173 160.496C549.261 160.992 548.197 161.24 546.981 161.24C545.781 161.24 544.717 160.992 543.789 160.496C542.861 160 542.133 159.288 541.605 158.36C541.093 157.416 540.837 156.296 540.837 155C540.837 153.688 541.093 152.568 541.605 151.64C542.133 150.712 542.861 150 543.789 149.504C544.717 149.008 545.781 148.76 546.981 148.76ZM546.981 151.208C546.373 151.208 545.853 151.352 545.421 151.64C545.005 151.912 544.685 152.328 544.461 152.888C544.237 153.448 544.125 154.152 544.125 155C544.125 155.848 544.237 156.552 544.461 157.112C544.685 157.672 545.005 158.096 545.421 158.384C545.853 158.656 546.373 158.792 546.981 158.792C547.573 158.792 548.077 158.656 548.493 158.384C548.925 158.096 549.253 157.672 549.477 157.112C549.701 156.552 549.813 155.848 549.813 155C549.813 154.152 549.701 153.448 549.477 152.888C549.253 152.328 548.925 151.912 548.493 151.64C548.077 151.352 547.573 151.208 546.981 151.208Z" fill="white"/>
<path d="M555 84C554.448 84 554 84.4477 554 85C554 85.5523 554.448 86 555 86L555 84ZM726.774 85L721 79.2265L715.227 85L721 90.7735L726.774 85ZM560.929 86C561.481 86 561.929 85.5523 561.929 85C561.929 84.4477 561.481 84 560.929 84L560.929 86ZM572.786 84C572.233 84 571.786 84.4477 571.786 85C571.786 85.5523 572.233 86 572.786 86L572.786 84ZM584.643 86C585.195 86 585.643 85.5523 585.643 85C585.643 84.4477 585.195 84 584.643 84L584.643 86ZM596.5 84C595.948 84 595.5 84.4477 595.5 85C595.5 85.5523 595.948 86 596.5 86L596.5 84ZM608.357 86C608.909 86 609.357 85.5523 609.357 85C609.357 84.4477 608.909 84 608.357 84L608.357 86ZM620.214 84C619.662 84 619.214 84.4477 619.214 85C619.214 85.5523 619.662 86 620.214 86L620.214 84ZM632.071 86C632.624 86 633.071 85.5523 633.071 85C633.071 84.4477 632.624 84 632.071 84L632.071 86ZM643.929 84C643.376 84 642.929 84.4477 642.929 85C642.929 85.5523 643.376 86 643.929 86L643.929 84ZM655.786 86C656.338 86 656.786 85.5523 656.786 85C656.786 84.4477 656.338 84 655.786 84L655.786 86ZM667.643 84C667.091 84 666.643 84.4477 666.643 85C666.643 85.5523 667.091 86 667.643 86L667.643 84ZM679.5 86C680.052 86 680.5 85.5523 680.5 85C680.5 84.4477 680.052 84 679.5 84L679.5 86ZM691.357 84C690.805 84 690.357 84.4477 690.357 85C690.357 85.5523 690.805 86 691.357 86L691.357 84ZM703.214 86C703.767 86 704.214 85.5523 704.214 85C704.214 84.4477 703.767 84 703.214 84L703.214 86ZM715.071 84C714.519 84 714.071 84.4477 714.071 85C714.071 85.5523 714.519 86 715.071 86L715.071 84ZM555 86L560.929 86L560.929 84L555 84L555 86ZM572.786 86L584.643 86L584.643 84L572.786 84L572.786 86ZM596.5 86L608.357 86L608.357 84L596.5 84L596.5 86ZM620.214 86L632.071 86L632.071 84L620.214 84L620.214 86ZM643.929 86L655.786 86L655.786 84L643.929 84L643.929 86ZM667.643 86L679.5 86L679.5 84L667.643 84L667.643 86ZM691.357 86L703.214 86L703.214 84L691.357 84L691.357 86ZM715.071 86L721 86L721 84L715.071 84L715.071 86Z" fill="white"/>
<g filter="url(#filter2_b_137_250)">
<circle cx="872.5" cy="56" r="53" fill="url(#paint2_linear_137_250)"/>
</g>
<path d="M870.632 48.0078L871 47.9978H886C887.66 47.9977 889.257 48.6326 890.464 49.7725C891.67 50.9123 892.395 52.4706 892.49 54.1278L892.5 54.4978V69.4978C892.5 71.1581 891.865 72.7555 890.725 73.9623C889.584 75.1691 888.025 75.8939 886.368 75.9878L886 75.9978H871C869.34 75.998 867.742 75.3627 866.535 74.2225C865.329 73.0823 864.604 71.5235 864.51 69.8658L864.5 69.4998V54.4998C864.5 52.8396 865.135 51.2422 866.275 50.0354C867.415 48.8286 868.974 48.1038 870.632 48.0098V48.0078ZM886 50.9978H871C870.121 50.9979 869.275 51.3282 868.629 51.9232C867.983 52.5182 867.584 53.3344 867.512 54.2098L867.5 54.4978V69.4978C867.5 70.3765 867.831 71.2231 868.426 71.8693C869.021 72.5155 869.838 72.914 870.714 72.9858L871 72.9978H886C886.879 72.9978 887.725 72.6672 888.371 72.0718C889.017 71.4763 889.416 70.6596 889.488 69.7838L889.5 69.4978V54.4978C889.5 53.5696 889.131 52.6793 888.475 52.023C887.818 51.3666 886.928 50.9978 886 50.9978V50.9978ZM878.5 53.9998C878.898 53.9998 879.279 54.1579 879.561 54.4392C879.842 54.7205 880 55.102 880 55.4998V60.4958H885C885.398 60.4958 885.779 60.6539 886.061 60.9352C886.342 61.2165 886.5 61.598 886.5 61.9958C886.5 62.3937 886.342 62.7752 886.061 63.0565C885.779 63.3378 885.398 63.4958 885 63.4958H880V68.4998C880 68.8977 879.842 69.2792 879.561 69.5605C879.279 69.8418 878.898 69.9998 878.5 69.9998C878.102 69.9998 877.72 69.8418 877.439 69.5605C877.158 69.2792 877 68.8977 877 68.4998V63.4958H872C871.602 63.4958 871.22 63.3378 870.939 63.0565C870.658 62.7752 870.5 62.3937 870.5 61.9958C870.5 61.598 870.658 61.2165 870.939 60.9352C871.22 60.6539 871.602 60.4958 872 60.4958H877V55.4998C877 55.102 877.158 54.7205 877.439 54.4392C877.72 54.1579 878.102 53.9998 878.5 53.9998ZM879.664 40.4658L879.768 40.8198L881.154 45.9958H878.048L876.872 41.5958C876.753 41.1516 876.548 40.7352 876.268 40.3703C875.988 40.0054 875.639 39.6993 875.241 39.4693C874.843 39.2394 874.403 39.0902 873.947 39.0302C873.491 38.9702 873.028 39.0007 872.584 39.1198L858.096 43.0038C857.25 43.2306 856.52 43.7662 856.05 44.5049C855.58 45.2435 855.403 46.1316 855.556 46.9938L855.62 47.2898L859.504 61.7778C859.686 62.4586 860.069 63.0686 860.604 63.5279C861.139 63.9871 861.799 64.2743 862.5 64.3518V67.3638C861.199 67.2863 859.952 66.8202 858.92 66.0257C857.888 65.2312 857.118 64.145 856.71 62.9078L856.606 62.5558L852.724 48.0658C852.294 46.4626 852.494 44.7556 853.282 43.2948C854.07 41.8341 855.388 40.7303 856.964 40.2098L857.32 40.1058L871.808 36.2238C873.411 35.7938 875.118 35.9935 876.579 36.7819C878.04 37.5703 879.143 38.8876 879.664 40.4638V40.4658Z" fill="#F81DFB"/>
<path d="M730.048 147.16C731.84 147.16 733.248 147.592 734.272 148.456C735.296 149.32 735.808 150.48 735.808 151.936C735.808 153.488 735.296 154.68 734.272 155.512C733.248 156.328 731.848 156.736 730.072 156.736L729.736 156.928H726.328V163H723.064V147.16H730.048ZM729.664 154.408C730.592 154.408 731.28 154.224 731.728 153.856C732.192 153.472 732.424 152.888 732.424 152.104C732.424 151.32 732.192 150.744 731.728 150.376C731.28 149.992 730.592 149.8 729.664 149.8H726.328V154.408H729.664ZM731.608 155.104L736.744 163H733.024L728.776 156.064L731.608 155.104ZM744.374 163.24C743.11 163.24 742.006 162.992 741.062 162.496C740.134 162 739.414 161.288 738.902 160.36C738.39 159.432 738.134 158.312 738.134 157C738.134 155.688 738.39 154.568 738.902 153.64C739.414 152.712 740.126 152 741.038 151.504C741.966 151.008 743.022 150.76 744.206 150.76C745.422 150.76 746.454 151.008 747.302 151.504C748.15 151.984 748.798 152.648 749.246 153.496C749.694 154.328 749.918 155.28 749.918 156.352C749.918 156.672 749.91 156.976 749.894 157.264C749.878 157.552 749.854 157.808 749.822 158.032H740.246V155.752H748.382L746.798 156.328C746.798 155.32 746.566 154.544 746.102 154C745.654 153.456 745.014 153.184 744.182 153.184C743.574 153.184 743.046 153.328 742.598 153.616C742.166 153.904 741.838 154.336 741.614 154.912C741.39 155.472 741.278 156.184 741.278 157.048C741.278 157.896 741.398 158.6 741.638 159.16C741.894 159.704 742.246 160.112 742.694 160.384C743.158 160.656 743.71 160.792 744.35 160.792C745.054 160.792 745.622 160.656 746.054 160.384C746.486 160.112 746.822 159.736 747.062 159.256L749.678 160.264C749.422 160.888 749.03 161.424 748.502 161.872C747.99 162.32 747.374 162.664 746.654 162.904C745.95 163.128 745.19 163.24 744.374 163.24ZM758.153 150.76C759.225 150.76 760.129 150.92 760.865 151.24C761.617 151.544 762.217 151.968 762.665 152.512C763.129 153.04 763.457 153.632 763.649 154.288L760.577 155.392C760.417 154.672 760.145 154.128 759.761 153.76C759.377 153.392 758.857 153.208 758.201 153.208C757.593 153.208 757.073 153.352 756.641 153.64C756.209 153.912 755.881 154.336 755.657 154.912C755.433 155.472 755.321 156.176 755.321 157.024C755.321 157.872 755.433 158.576 755.657 159.136C755.897 159.696 756.233 160.112 756.665 160.384C757.113 160.656 757.633 160.792 758.225 160.792C758.705 160.792 759.113 160.712 759.449 160.552C759.785 160.376 760.057 160.128 760.265 159.808C760.489 159.488 760.641 159.104 760.721 158.656L763.697 159.616C763.521 160.336 763.193 160.968 762.713 161.512C762.233 162.056 761.617 162.48 760.865 162.784C760.113 163.088 759.241 163.24 758.249 163.24C757.017 163.24 755.929 162.992 754.985 162.496C754.041 162 753.313 161.288 752.801 160.36C752.289 159.432 752.033 158.312 752.033 157C752.033 155.688 752.289 154.568 752.801 153.64C753.313 152.712 754.033 152 754.961 151.504C755.889 151.008 756.953 150.76 758.153 150.76ZM771.819 163.24C770.555 163.24 769.451 162.992 768.507 162.496C767.579 162 766.859 161.288 766.347 160.36C765.835 159.432 765.579 158.312 765.579 157C765.579 155.688 765.835 154.568 766.347 153.64C766.859 152.712 767.571 152 768.483 151.504C769.411 151.008 770.467 150.76 771.651 150.76C772.867 150.76 773.899 151.008 774.747 151.504C775.595 151.984 776.243 152.648 776.691 153.496C777.139 154.328 777.363 155.28 777.363 156.352C777.363 156.672 777.355 156.976 777.339 157.264C777.323 157.552 777.299 157.808 777.267 158.032H767.691V155.752H775.827L774.243 156.328C774.243 155.32 774.011 154.544 773.547 154C773.099 153.456 772.459 153.184 771.627 153.184C771.019 153.184 770.491 153.328 770.043 153.616C769.611 153.904 769.283 154.336 769.059 154.912C768.835 155.472 768.723 156.184 768.723 157.048C768.723 157.896 768.843 158.6 769.083 159.16C769.339 159.704 769.691 160.112 770.139 160.384C770.603 160.656 771.155 160.792 771.795 160.792C772.499 160.792 773.067 160.656 773.499 160.384C773.931 160.112 774.267 159.736 774.507 159.256L777.123 160.264C776.867 160.888 776.475 161.424 775.947 161.872C775.435 162.32 774.819 162.664 774.099 162.904C773.395 163.128 772.635 163.24 771.819 163.24ZM787.206 163.24C786.47 163.24 785.798 163.088 785.19 162.784C784.598 162.464 784.102 162.032 783.702 161.488C783.318 160.928 783.054 160.304 782.91 159.616L783.246 159.184L783.054 163H780.15V145.744H783.438V154.384L783.126 153.88C783.382 152.984 783.87 152.24 784.59 151.648C785.31 151.056 786.214 150.76 787.302 150.76C788.246 150.76 789.102 151.008 789.87 151.504C790.638 152 791.238 152.712 791.67 153.64C792.118 154.568 792.342 155.696 792.342 157.024C792.342 158.32 792.118 159.432 791.67 160.36C791.238 161.288 790.63 162 789.846 162.496C789.078 162.992 788.198 163.24 787.206 163.24ZM786.222 160.72C787.102 160.72 787.79 160.408 788.286 159.784C788.798 159.144 789.054 158.216 789.054 157C789.054 155.784 788.806 154.864 788.31 154.24C787.814 153.6 787.126 153.28 786.246 153.28C785.67 153.28 785.174 153.432 784.758 153.736C784.342 154.04 784.014 154.472 783.774 155.032C783.55 155.592 783.438 156.256 783.438 157.024C783.438 157.808 783.55 158.48 783.774 159.04C784.014 159.584 784.342 160 784.758 160.288C785.19 160.576 785.678 160.72 786.222 160.72ZM801.966 155.344C801.966 154.656 801.766 154.12 801.366 153.736C800.982 153.352 800.47 153.16 799.83 153.16C799.238 153.16 798.718 153.312 798.27 153.616C797.822 153.92 797.494 154.424 797.286 155.128L794.478 154.264C794.75 153.208 795.342 152.36 796.254 151.72C797.182 151.08 798.422 150.76 799.974 150.76C801.03 150.76 801.95 150.928 802.734 151.264C803.518 151.584 804.126 152.072 804.558 152.728C805.006 153.384 805.23 154.208 805.23 155.2V160.072C805.23 160.68 805.518 160.984 806.094 160.984C806.366 160.984 806.622 160.944 806.862 160.864L806.67 162.904C806.254 163.112 805.734 163.216 805.11 163.216C804.55 163.216 804.046 163.12 803.598 162.928C803.15 162.736 802.798 162.448 802.542 162.064C802.286 161.664 802.158 161.168 802.158 160.576V160.48L802.734 160.384C802.638 160.992 802.374 161.512 801.942 161.944C801.51 162.36 800.982 162.68 800.358 162.904C799.75 163.128 799.118 163.24 798.462 163.24C797.646 163.24 796.942 163.12 796.35 162.88C795.758 162.624 795.302 162.256 794.982 161.776C794.662 161.296 794.502 160.704 794.502 160C794.502 159.104 794.79 158.376 795.366 157.816C795.942 157.24 796.766 156.848 797.838 156.64L802.35 155.728L802.326 157.768L799.446 158.344C798.902 158.456 798.486 158.608 798.198 158.8C797.926 158.976 797.79 159.272 797.79 159.688C797.79 160.088 797.934 160.392 798.222 160.6C798.526 160.808 798.886 160.912 799.302 160.912C799.638 160.912 799.966 160.872 800.286 160.792C800.606 160.712 800.894 160.584 801.15 160.408C801.406 160.232 801.606 159.992 801.75 159.688C801.894 159.384 801.966 159.016 801.966 158.584V155.344ZM822.012 146.92C823.452 146.92 824.716 147.168 825.804 147.664C826.892 148.16 827.82 148.896 828.588 149.872L826.74 152.008C826.084 151.176 825.364 150.568 824.58 150.184C823.812 149.784 822.916 149.584 821.892 149.584C821.22 149.584 820.66 149.672 820.212 149.848C819.78 150.024 819.46 150.256 819.252 150.544C819.06 150.832 818.964 151.152 818.964 151.504C818.964 151.936 819.132 152.304 819.468 152.608C819.804 152.896 820.38 153.136 821.196 153.328L824.148 154C825.716 154.352 826.836 154.88 827.508 155.584C828.196 156.272 828.54 157.168 828.54 158.272C828.54 159.312 828.268 160.208 827.724 160.96C827.18 161.696 826.42 162.264 825.444 162.664C824.468 163.048 823.348 163.24 822.084 163.24C820.98 163.24 819.964 163.112 819.036 162.856C818.124 162.584 817.308 162.216 816.588 161.752C815.868 161.288 815.268 160.752 814.788 160.144L816.66 157.912C817.028 158.424 817.484 158.88 818.028 159.28C818.572 159.68 819.188 160 819.876 160.24C820.58 160.464 821.316 160.576 822.084 160.576C822.74 160.576 823.292 160.504 823.74 160.36C824.204 160.2 824.548 159.984 824.772 159.712C825.012 159.424 825.132 159.08 825.132 158.68C825.132 158.264 824.988 157.912 824.7 157.624C824.428 157.32 823.916 157.088 823.164 156.928L819.948 156.208C819.02 155.984 818.22 155.696 817.548 155.344C816.892 154.976 816.388 154.512 816.036 153.952C815.7 153.376 815.532 152.696 815.532 151.912C815.532 150.968 815.788 150.12 816.3 149.368C816.812 148.616 817.548 148.024 818.508 147.592C819.484 147.144 820.652 146.92 822.012 146.92ZM836.905 163.24C835.641 163.24 834.537 162.992 833.593 162.496C832.665 162 831.945 161.288 831.433 160.36C830.921 159.432 830.665 158.312 830.665 157C830.665 155.688 830.921 154.568 831.433 153.64C831.945 152.712 832.657 152 833.569 151.504C834.497 151.008 835.553 150.76 836.737 150.76C837.953 150.76 838.985 151.008 839.833 151.504C840.681 151.984 841.329 152.648 841.777 153.496C842.225 154.328 842.449 155.28 842.449 156.352C842.449 156.672 842.441 156.976 842.425 157.264C842.409 157.552 842.385 157.808 842.353 158.032H832.777V155.752H840.913L839.329 156.328C839.329 155.32 839.097 154.544 838.633 154C838.185 153.456 837.545 153.184 836.713 153.184C836.105 153.184 835.577 153.328 835.129 153.616C834.697 153.904 834.369 154.336 834.145 154.912C833.921 155.472 833.809 156.184 833.809 157.048C833.809 157.896 833.929 158.6 834.169 159.16C834.425 159.704 834.777 160.112 835.225 160.384C835.689 160.656 836.241 160.792 836.881 160.792C837.585 160.792 838.153 160.656 838.585 160.384C839.017 160.112 839.353 159.736 839.593 159.256L842.209 160.264C841.953 160.888 841.561 161.424 841.033 161.872C840.521 162.32 839.905 162.664 839.185 162.904C838.481 163.128 837.721 163.24 836.905 163.24ZM849.412 163.24C848.612 163.24 847.892 163.096 847.252 162.808C846.612 162.52 846.1 162.064 845.716 161.44C845.348 160.8 845.164 159.976 845.164 158.968V151H848.452V158.176C848.452 159.104 848.644 159.752 849.028 160.12C849.412 160.472 849.964 160.648 850.684 160.648C851.02 160.648 851.348 160.592 851.668 160.48C851.988 160.352 852.268 160.16 852.508 159.904C852.764 159.648 852.964 159.32 853.108 158.92C853.252 158.504 853.324 158.016 853.324 157.456V151H856.612V163H853.684L853.564 160.912C853.164 161.712 852.612 162.304 851.908 162.688C851.22 163.056 850.388 163.24 849.412 163.24ZM881.304 158.632C881 159.656 880.52 160.512 879.864 161.2C879.208 161.888 878.432 162.4 877.536 162.736C876.64 163.072 875.656 163.24 874.584 163.24C873.016 163.24 871.656 162.912 870.504 162.256C869.368 161.6 868.488 160.664 867.864 159.448C867.256 158.232 866.952 156.776 866.952 155.08C866.952 153.384 867.256 151.928 867.864 150.712C868.488 149.496 869.368 148.56 870.504 147.904C871.656 147.248 873 146.92 874.536 146.92C875.624 146.92 876.608 147.072 877.488 147.376C878.368 147.664 879.112 148.112 879.72 148.72C880.344 149.328 880.8 150.096 881.088 151.024L878.088 152.296C877.816 151.336 877.4 150.656 876.84 150.256C876.28 149.84 875.56 149.632 874.68 149.632C873.816 149.632 873.056 149.84 872.4 150.256C871.76 150.672 871.264 151.288 870.912 152.104C870.56 152.904 870.384 153.896 870.384 155.08C870.384 156.248 870.544 157.24 870.864 158.056C871.2 158.872 871.688 159.488 872.328 159.904C872.968 160.32 873.752 160.528 874.68 160.528C875.544 160.528 876.288 160.296 876.912 159.832C877.552 159.368 878 158.664 878.256 157.72L881.304 158.632ZM889.263 150.76C890.479 150.76 891.543 151.008 892.455 151.504C893.383 152 894.103 152.712 894.615 153.64C895.143 154.568 895.407 155.688 895.407 157C895.407 158.296 895.143 159.416 894.615 160.36C894.103 161.288 893.383 162 892.455 162.496C891.543 162.992 890.479 163.24 889.263 163.24C888.063 163.24 886.999 162.992 886.071 162.496C885.143 162 884.415 161.288 883.887 160.36C883.375 159.416 883.119 158.296 883.119 157C883.119 155.688 883.375 154.568 883.887 153.64C884.415 152.712 885.143 152 886.071 151.504C886.999 151.008 888.063 150.76 889.263 150.76ZM889.263 153.208C888.655 153.208 888.135 153.352 887.703 153.64C887.287 153.912 886.967 154.328 886.743 154.888C886.519 155.448 886.407 156.152 886.407 157C886.407 157.848 886.519 158.552 886.743 159.112C886.967 159.672 887.287 160.096 887.703 160.384C888.135 160.656 888.655 160.792 889.263 160.792C889.855 160.792 890.359 160.656 890.775 160.384C891.207 160.096 891.535 159.672 891.759 159.112C891.983 158.552 892.095 157.848 892.095 157C892.095 156.152 891.983 155.448 891.759 154.888C891.535 154.328 891.207 153.912 890.775 153.64C890.359 153.352 889.855 153.208 889.263 153.208ZM898.158 163V151H901.11L901.23 153.16C901.63 152.36 902.174 151.76 902.862 151.36C903.566 150.96 904.342 150.76 905.19 150.76C906.054 150.76 906.83 150.96 907.518 151.36C908.222 151.76 908.75 152.352 909.102 153.136C909.358 152.608 909.702 152.168 910.134 151.816C910.566 151.464 911.046 151.2 911.574 151.024C912.102 150.848 912.638 150.76 913.182 150.76C913.966 150.76 914.678 150.92 915.318 151.24C915.974 151.56 916.494 152.04 916.878 152.68C917.262 153.32 917.454 154.136 917.454 155.128V163H914.166V155.776C914.166 154.896 913.974 154.272 913.59 153.904C913.206 153.536 912.71 153.352 912.102 153.352C911.622 153.352 911.174 153.472 910.758 153.712C910.358 153.952 910.038 154.312 909.798 154.792C909.574 155.256 909.462 155.84 909.462 156.544V163H906.174V155.776C906.174 154.896 905.974 154.272 905.574 153.904C905.19 153.536 904.694 153.352 904.086 153.352C903.67 153.352 903.254 153.464 902.838 153.688C902.438 153.912 902.102 154.264 901.83 154.744C901.574 155.224 901.446 155.856 901.446 156.64V163H898.158ZM920.845 168.04V151H923.797L924.013 154.816L923.605 154.384C923.749 153.68 924.013 153.056 924.397 152.512C924.797 151.968 925.301 151.544 925.909 151.24C926.517 150.92 927.197 150.76 927.949 150.76C928.925 150.76 929.797 151.008 930.565 151.504C931.333 152 931.933 152.712 932.365 153.64C932.813 154.552 933.037 155.664 933.037 156.976C933.037 158.288 932.813 159.416 932.365 160.36C931.917 161.288 931.301 162 930.517 162.496C929.749 162.992 928.869 163.24 927.877 163.24C926.821 163.24 925.941 162.944 925.237 162.352C924.549 161.76 924.077 161.016 923.821 160.12L924.133 159.616V168.04H920.845ZM926.917 160.72C927.797 160.72 928.485 160.408 928.981 159.784C929.493 159.144 929.749 158.216 929.749 157C929.749 155.784 929.501 154.864 929.005 154.24C928.525 153.6 927.845 153.28 926.965 153.28C926.405 153.28 925.909 153.432 925.477 153.736C925.061 154.024 924.733 154.448 924.493 155.008C924.253 155.552 924.133 156.216 924.133 157C924.133 157.768 924.245 158.432 924.469 158.992C924.693 159.552 925.013 159.984 925.429 160.288C925.861 160.576 926.357 160.72 926.917 160.72ZM935.892 163V151H938.748L938.964 153.352C939.284 152.52 939.748 151.88 940.356 151.432C940.98 150.984 941.756 150.76 942.684 150.76C942.956 150.76 943.204 150.784 943.428 150.832C943.652 150.88 943.836 150.944 943.98 151.024L943.596 153.784C943.436 153.72 943.236 153.672 942.996 153.64C942.772 153.608 942.476 153.592 942.108 153.592C941.628 153.592 941.164 153.712 940.716 153.952C940.268 154.176 939.9 154.528 939.612 155.008C939.324 155.472 939.18 156.064 939.18 156.784V163H935.892ZM951.255 150.76C952.471 150.76 953.535 151.008 954.447 151.504C955.375 152 956.095 152.712 956.607 153.64C957.135 154.568 957.399 155.688 957.399 157C957.399 158.296 957.135 159.416 956.607 160.36C956.095 161.288 955.375 162 954.447 162.496C953.535 162.992 952.471 163.24 951.255 163.24C950.055 163.24 948.991 162.992 948.063 162.496C947.135 162 946.407 161.288 945.879 160.36C945.367 159.416 945.111 158.296 945.111 157C945.111 155.688 945.367 154.568 945.879 153.64C946.407 152.712 947.135 152 948.063 151.504C948.991 151.008 950.055 150.76 951.255 150.76ZM951.255 153.208C950.647 153.208 950.127 153.352 949.695 153.64C949.279 153.912 948.959 154.328 948.735 154.888C948.511 155.448 948.399 156.152 948.399 157C948.399 157.848 948.511 158.552 948.735 159.112C948.959 159.672 949.279 160.096 949.695 160.384C950.127 160.656 950.647 160.792 951.255 160.792C951.847 160.792 952.351 160.656 952.767 160.384C953.199 160.096 953.527 159.672 953.751 159.112C953.975 158.552 954.087 157.848 954.087 157C954.087 156.152 953.975 155.448 953.751 154.888C953.527 154.328 953.199 153.912 952.767 153.64C952.351 153.352 951.847 153.208 951.255 153.208ZM967.881 151H971.289L966.729 163H962.937L958.377 151H961.881L964.857 160.48L967.881 151ZM979.693 155.344C979.693 154.656 979.493 154.12 979.093 153.736C978.709 153.352 978.197 153.16 977.557 153.16C976.965 153.16 976.445 153.312 975.997 153.616C975.549 153.92 975.221 154.424 975.013 155.128L972.205 154.264C972.477 153.208 973.069 152.36 973.981 151.72C974.909 151.08 976.149 150.76 977.701 150.76C978.757 150.76 979.677 150.928 980.461 151.264C981.245 151.584 981.853 152.072 982.285 152.728C982.733 153.384 982.957 154.208 982.957 155.2V160.072C982.957 160.68 983.245 160.984 983.821 160.984C984.093 160.984 984.349 160.944 984.589 160.864L984.397 162.904C983.981 163.112 983.461 163.216 982.837 163.216C982.277 163.216 981.773 163.12 981.325 162.928C980.877 162.736 980.525 162.448 980.269 162.064C980.013 161.664 979.885 161.168 979.885 160.576V160.48L980.461 160.384C980.365 160.992 980.101 161.512 979.669 161.944C979.237 162.36 978.709 162.68 978.085 162.904C977.477 163.128 976.845 163.24 976.189 163.24C975.373 163.24 974.669 163.12 974.077 162.88C973.485 162.624 973.029 162.256 972.709 161.776C972.389 161.296 972.229 160.704 972.229 160C972.229 159.104 972.517 158.376 973.093 157.816C973.669 157.24 974.493 156.848 975.565 156.64L980.077 155.728L980.053 157.768L977.173 158.344C976.629 158.456 976.213 158.608 975.925 158.8C975.653 158.976 975.517 159.272 975.517 159.688C975.517 160.088 975.661 160.392 975.949 160.6C976.253 160.808 976.613 160.912 977.029 160.912C977.365 160.912 977.693 160.872 978.013 160.792C978.333 160.712 978.621 160.584 978.877 160.408C979.133 160.232 979.333 159.992 979.477 159.688C979.621 159.384 979.693 159.016 979.693 158.584V155.344ZM986.634 163V151H989.586L989.778 154.6L989.37 154.216C989.562 153.432 989.866 152.784 990.282 152.272C990.698 151.76 991.202 151.384 991.794 151.144C992.402 150.888 993.066 150.76 993.786 150.76C994.618 150.76 995.354 150.92 995.994 151.24C996.65 151.56 997.162 152.048 997.53 152.704C997.914 153.344 998.106 154.152 998.106 155.128V163H994.818V156.064C994.818 155.04 994.618 154.336 994.218 153.952C993.818 153.552 993.298 153.352 992.658 153.352C992.21 153.352 991.77 153.464 991.338 153.688C990.922 153.896 990.578 154.24 990.306 154.72C990.05 155.2 989.922 155.84 989.922 156.64V163H986.634ZM1005.65 147.328V159.088C1005.65 159.664 1005.79 160.088 1006.08 160.36C1006.38 160.616 1006.79 160.744 1007.3 160.744C1007.7 160.744 1008.06 160.688 1008.36 160.576C1008.66 160.448 1008.94 160.28 1009.18 160.072L1009.7 162.256C1009.32 162.56 1008.84 162.8 1008.26 162.976C1007.69 163.152 1007.08 163.24 1006.44 163.24C1005.64 163.24 1004.93 163.12 1004.3 162.88C1003.7 162.64 1003.22 162.256 1002.86 161.728C1002.53 161.2 1002.36 160.496 1002.36 159.616V148.24L1005.65 147.328ZM1009.49 151V153.448H1000.15V151H1009.49ZM1017.28 163.24C1016.02 163.24 1014.91 162.992 1013.97 162.496C1013.04 162 1012.32 161.288 1011.81 160.36C1011.3 159.432 1011.04 158.312 1011.04 157C1011.04 155.688 1011.3 154.568 1011.81 153.64C1012.32 152.712 1013.03 152 1013.94 151.504C1014.87 151.008 1015.93 150.76 1017.11 150.76C1018.33 150.76 1019.36 151.008 1020.21 151.504C1021.06 151.984 1021.7 152.648 1022.15 153.496C1022.6 154.328 1022.82 155.28 1022.82 156.352C1022.82 156.672 1022.82 156.976 1022.8 157.264C1022.78 157.552 1022.76 157.808 1022.73 158.032H1013.15V155.752H1021.29L1019.7 156.328C1019.7 155.32 1019.47 154.544 1019.01 154C1018.56 153.456 1017.92 153.184 1017.09 153.184C1016.48 153.184 1015.95 153.328 1015.5 153.616C1015.07 153.904 1014.74 154.336 1014.52 154.912C1014.3 155.472 1014.18 156.184 1014.18 157.048C1014.18 157.896 1014.3 158.6 1014.54 159.16C1014.8 159.704 1015.15 160.112 1015.6 160.384C1016.06 160.656 1016.62 160.792 1017.26 160.792C1017.96 160.792 1018.53 160.656 1018.96 160.384C1019.39 160.112 1019.73 159.736 1019.97 159.256L1022.58 160.264C1022.33 160.888 1021.94 161.424 1021.41 161.872C1020.9 162.32 1020.28 162.664 1019.56 162.904C1018.86 163.128 1018.1 163.24 1017.28 163.24Z" fill="white"/>
<path d="M1067 85C1066.45 85 1066 85.4477 1066 86C1066 86.5523 1066.45 87 1067 87V85ZM1197.77 86L1192 80.2265L1186.23 86L1192 91.7735L1197.77 86ZM1073.25 87C1073.8 87 1074.25 86.5523 1074.25 86C1074.25 85.4477 1073.8 85 1073.25 85V87ZM1085.75 85C1085.2 85 1084.75 85.4477 1084.75 86C1084.75 86.5523 1085.2 87 1085.75 87V85ZM1098.25 87C1098.8 87 1099.25 86.5523 1099.25 86C1099.25 85.4477 1098.8 85 1098.25 85V87ZM1110.75 85C1110.2 85 1109.75 85.4477 1109.75 86C1109.75 86.5523 1110.2 87 1110.75 87V85ZM1123.25 87C1123.8 87 1124.25 86.5523 1124.25 86C1124.25 85.4477 1123.8 85 1123.25 85V87ZM1135.75 85C1135.2 85 1134.75 85.4477 1134.75 86C1134.75 86.5523 1135.2 87 1135.75 87V85ZM1148.25 87C1148.8 87 1149.25 86.5523 1149.25 86C1149.25 85.4477 1148.8 85 1148.25 85V87ZM1160.75 85C1160.2 85 1159.75 85.4477 1159.75 86C1159.75 86.5523 1160.2 87 1160.75 87V85ZM1173.25 87C1173.8 87 1174.25 86.5523 1174.25 86C1174.25 85.4477 1173.8 85 1173.25 85V87ZM1185.75 85C1185.2 85 1184.75 85.4477 1184.75 86C1184.75 86.5523 1185.2 87 1185.75 87V85ZM1067 87H1073.25V85H1067V87ZM1085.75 87L1098.25 87V85L1085.75 85V87ZM1110.75 87H1123.25V85H1110.75V87ZM1135.75 87H1148.25V85H1135.75V87ZM1160.75 87H1173.25V85H1160.75V87ZM1185.75 87H1192V85H1185.75V87Z" fill="white"/>
<g filter="url(#filter3_b_137_250)">
<circle cx="1360.5" cy="56" r="53" fill="url(#paint3_linear_137_250)"/>
</g>
<path d="M1377.5 46L1360.5 36L1343.5 46V66L1360.5 76L1377.5 66V46Z" stroke="#F81DFB" stroke-width="3" stroke-linejoin="round"/>
<path d="M1360.5 54V62" stroke="#F81DFB" stroke-width="3" stroke-linecap="round" stroke-linejoin="round"/>
<path d="M1368.5 50V62" stroke="#F81DFB" stroke-width="3" stroke-linecap="round" stroke-linejoin="round"/>
<path d="M1352.5 58V62" stroke="#F81DFB" stroke-width="3" stroke-linecap="round" stroke-linejoin="round"/>
<path d="M1194.06 163V147.16H1205.94V149.824H1197.38V153.76H1204.12V156.304H1197.38V160.336H1206.28V163H1194.06ZM1229.66 163H1226.23L1224.91 159.136H1218.84L1217.52 163H1214.13L1219.92 147.16H1223.88L1229.66 163ZM1219.58 156.688H1224.16L1221.86 149.776L1219.58 156.688ZM1236.82 150.76C1237.89 150.76 1238.79 150.92 1239.53 151.24C1240.28 151.544 1240.88 151.968 1241.33 152.512C1241.79 153.04 1242.12 153.632 1242.31 154.288L1239.24 155.392C1239.08 154.672 1238.81 154.128 1238.42 153.76C1238.04 153.392 1237.52 153.208 1236.86 153.208C1236.26 153.208 1235.74 153.352 1235.3 153.64C1234.87 153.912 1234.54 154.336 1234.32 154.912C1234.1 155.472 1233.98 156.176 1233.98 157.024C1233.98 157.872 1234.1 158.576 1234.32 159.136C1234.56 159.696 1234.9 160.112 1235.33 160.384C1235.78 160.656 1236.3 160.792 1236.89 160.792C1237.37 160.792 1237.78 160.712 1238.11 160.552C1238.45 160.376 1238.72 160.128 1238.93 159.808C1239.15 159.488 1239.3 159.104 1239.38 158.656L1242.36 159.616C1242.18 160.336 1241.86 160.968 1241.38 161.512C1240.9 162.056 1240.28 162.48 1239.53 162.784C1238.78 163.088 1237.9 163.24 1236.91 163.24C1235.68 163.24 1234.59 162.992 1233.65 162.496C1232.7 162 1231.98 161.288 1231.46 160.36C1230.95 159.432 1230.7 158.312 1230.7 157C1230.7 155.688 1230.95 154.568 1231.46 153.64C1231.98 152.712 1232.7 152 1233.62 151.504C1234.55 151.008 1235.62 150.76 1236.82 150.76ZM1250.39 150.76C1251.6 150.76 1252.67 151.008 1253.58 151.504C1254.51 152 1255.23 152.712 1255.74 153.64C1256.27 154.568 1256.53 155.688 1256.53 157C1256.53 158.296 1256.27 159.416 1255.74 160.36C1255.23 161.288 1254.51 162 1253.58 162.496C1252.67 162.992 1251.6 163.24 1250.39 163.24C1249.19 163.24 1248.12 162.992 1247.2 162.496C1246.27 162 1245.54 161.288 1245.01 160.36C1244.5 159.416 1244.24 158.296 1244.24 157C1244.24 155.688 1244.5 154.568 1245.01 153.64C1245.54 152.712 1246.27 152 1247.2 151.504C1248.12 151.008 1249.19 150.76 1250.39 150.76ZM1250.39 153.208C1249.78 153.208 1249.26 153.352 1248.83 153.64C1248.41 153.912 1248.09 154.328 1247.87 154.888C1247.64 155.448 1247.53 156.152 1247.53 157C1247.53 157.848 1247.64 158.552 1247.87 159.112C1248.09 159.672 1248.41 160.096 1248.83 160.384C1249.26 160.656 1249.78 160.792 1250.39 160.792C1250.98 160.792 1251.48 160.656 1251.9 160.384C1252.33 160.096 1252.66 159.672 1252.88 159.112C1253.11 158.552 1253.22 157.848 1253.22 157C1253.22 156.152 1253.11 155.448 1252.88 154.888C1252.66 154.328 1252.33 153.912 1251.9 153.64C1251.48 153.352 1250.98 153.208 1250.39 153.208ZM1259.28 163V151H1262.23L1262.35 153.16C1262.75 152.36 1263.3 151.76 1263.99 151.36C1264.69 150.96 1265.47 150.76 1266.31 150.76C1267.18 150.76 1267.95 150.96 1268.64 151.36C1269.35 151.76 1269.87 152.352 1270.23 153.136C1270.48 152.608 1270.83 152.168 1271.26 151.816C1271.69 151.464 1272.17 151.2 1272.7 151.024C1273.23 150.848 1273.76 150.76 1274.31 150.76C1275.09 150.76 1275.8 150.92 1276.44 151.24C1277.1 151.56 1277.62 152.04 1278 152.68C1278.39 153.32 1278.58 154.136 1278.58 155.128V163H1275.29V155.776C1275.29 154.896 1275.1 154.272 1274.71 153.904C1274.33 153.536 1273.83 153.352 1273.23 153.352C1272.75 153.352 1272.3 153.472 1271.88 153.712C1271.48 153.952 1271.16 154.312 1270.92 154.792C1270.7 155.256 1270.59 155.84 1270.59 156.544V163H1267.3V155.776C1267.3 154.896 1267.1 154.272 1266.7 153.904C1266.31 153.536 1265.82 153.352 1265.21 153.352C1264.79 153.352 1264.38 153.464 1263.96 153.688C1263.56 153.912 1263.23 154.264 1262.95 154.744C1262.7 155.224 1262.57 155.856 1262.57 156.64V163H1259.28ZM1281.97 168.04V151H1284.92L1285.14 154.816L1284.73 154.384C1284.87 153.68 1285.14 153.056 1285.52 152.512C1285.92 151.968 1286.43 151.544 1287.03 151.24C1287.64 150.92 1288.32 150.76 1289.07 150.76C1290.05 150.76 1290.92 151.008 1291.69 151.504C1292.46 152 1293.06 152.712 1293.49 153.64C1293.94 154.552 1294.16 155.664 1294.16 156.976C1294.16 158.288 1293.94 159.416 1293.49 160.36C1293.04 161.288 1292.43 162 1291.64 162.496C1290.87 162.992 1289.99 163.24 1289 163.24C1287.95 163.24 1287.07 162.944 1286.36 162.352C1285.67 161.76 1285.2 161.016 1284.95 160.12L1285.26 159.616V168.04H1281.97ZM1288.04 160.72C1288.92 160.72 1289.61 160.408 1290.11 159.784C1290.62 159.144 1290.87 158.216 1290.87 157C1290.87 155.784 1290.63 154.864 1290.13 154.24C1289.65 153.6 1288.97 153.28 1288.09 153.28C1287.53 153.28 1287.03 153.432 1286.6 153.736C1286.19 154.024 1285.86 154.448 1285.62 155.008C1285.38 155.552 1285.26 156.216 1285.26 157C1285.26 157.768 1285.37 158.432 1285.59 158.992C1285.82 159.552 1286.14 159.984 1286.55 160.288C1286.99 160.576 1287.48 160.72 1288.04 160.72ZM1303.79 155.344C1303.79 154.656 1303.59 154.12 1303.19 153.736C1302.8 153.352 1302.29 153.16 1301.65 153.16C1301.06 153.16 1300.54 153.312 1300.09 153.616C1299.64 153.92 1299.31 154.424 1299.11 155.128L1296.3 154.264C1296.57 153.208 1297.16 152.36 1298.07 151.72C1299 151.08 1300.24 150.76 1301.79 150.76C1302.85 150.76 1303.77 150.928 1304.55 151.264C1305.34 151.584 1305.95 152.072 1306.38 152.728C1306.83 153.384 1307.05 154.208 1307.05 155.2V160.072C1307.05 160.68 1307.34 160.984 1307.91 160.984C1308.19 160.984 1308.44 160.944 1308.68 160.864L1308.49 162.904C1308.07 163.112 1307.55 163.216 1306.93 163.216C1306.37 163.216 1305.87 163.12 1305.42 162.928C1304.97 162.736 1304.62 162.448 1304.36 162.064C1304.11 161.664 1303.98 161.168 1303.98 160.576V160.48L1304.55 160.384C1304.46 160.992 1304.19 161.512 1303.76 161.944C1303.33 162.36 1302.8 162.68 1302.18 162.904C1301.57 163.128 1300.94 163.24 1300.28 163.24C1299.47 163.24 1298.76 163.12 1298.17 162.88C1297.58 162.624 1297.12 162.256 1296.8 161.776C1296.48 161.296 1296.32 160.704 1296.32 160C1296.32 159.104 1296.61 158.376 1297.19 157.816C1297.76 157.24 1298.59 156.848 1299.66 156.64L1304.17 155.728L1304.15 157.768L1301.27 158.344C1300.72 158.456 1300.31 158.608 1300.02 158.8C1299.75 158.976 1299.61 159.272 1299.61 159.688C1299.61 160.088 1299.75 160.392 1300.04 160.6C1300.35 160.808 1300.71 160.912 1301.12 160.912C1301.46 160.912 1301.79 160.872 1302.11 160.792C1302.43 160.712 1302.71 160.584 1302.97 160.408C1303.23 160.232 1303.43 159.992 1303.57 159.688C1303.71 159.384 1303.79 159.016 1303.79 158.584V155.344ZM1310.73 163V151H1313.68L1313.87 154.6L1313.46 154.216C1313.66 153.432 1313.96 152.784 1314.38 152.272C1314.79 151.76 1315.3 151.384 1315.89 151.144C1316.5 150.888 1317.16 150.76 1317.88 150.76C1318.71 150.76 1319.45 150.92 1320.09 151.24C1320.74 151.56 1321.26 152.048 1321.62 152.704C1322.01 153.344 1322.2 154.152 1322.2 155.128V163H1318.91V156.064C1318.91 155.04 1318.71 154.336 1318.31 153.952C1317.91 153.552 1317.39 153.352 1316.75 153.352C1316.3 153.352 1315.86 153.464 1315.43 153.688C1315.02 153.896 1314.67 154.24 1314.4 154.72C1314.14 155.2 1314.02 155.84 1314.02 156.64V163H1310.73ZM1325.59 163V145.744H1328.88V153.04C1329.26 152.272 1329.79 151.704 1330.46 151.336C1331.13 150.952 1331.89 150.76 1332.74 150.76C1333.57 150.76 1334.31 150.92 1334.95 151.24C1335.6 151.56 1336.12 152.048 1336.48 152.704C1336.87 153.344 1337.06 154.152 1337.06 155.128V163H1333.77V156.088C1333.77 155.048 1333.57 154.336 1333.17 153.952C1332.77 153.552 1332.26 153.352 1331.64 153.352C1331.17 153.352 1330.72 153.464 1330.29 153.688C1329.88 153.896 1329.53 154.248 1329.26 154.744C1329 155.224 1328.88 155.864 1328.88 156.664V163H1325.59ZM1346.01 163.24C1344.75 163.24 1343.65 162.992 1342.7 162.496C1341.77 162 1341.05 161.288 1340.54 160.36C1340.03 159.432 1339.77 158.312 1339.77 157C1339.77 155.688 1340.03 154.568 1340.54 153.64C1341.05 152.712 1341.77 152 1342.68 151.504C1343.61 151.008 1344.66 150.76 1345.85 150.76C1347.06 150.76 1348.09 151.008 1348.94 151.504C1349.79 151.984 1350.44 152.648 1350.89 153.496C1351.33 154.328 1351.56 155.28 1351.56 156.352C1351.56 156.672 1351.55 156.976 1351.53 157.264C1351.52 157.552 1351.49 157.808 1351.46 158.032H1341.89V155.752H1350.02L1348.44 156.328C1348.44 155.32 1348.21 154.544 1347.74 154C1347.29 153.456 1346.65 153.184 1345.82 153.184C1345.21 153.184 1344.69 153.328 1344.24 153.616C1343.81 153.904 1343.48 154.336 1343.25 154.912C1343.03 155.472 1342.92 156.184 1342.92 157.048C1342.92 157.896 1343.04 158.6 1343.28 159.16C1343.53 159.704 1343.89 160.112 1344.33 160.384C1344.8 160.656 1345.35 160.792 1345.99 160.792C1346.69 160.792 1347.26 160.656 1347.69 160.384C1348.13 160.112 1348.46 159.736 1348.7 159.256L1351.32 160.264C1351.06 160.888 1350.67 161.424 1350.14 161.872C1349.63 162.32 1349.01 162.664 1348.29 162.904C1347.59 163.128 1346.83 163.24 1346.01 163.24ZM1368.86 146.92C1370.43 146.92 1371.78 147.248 1372.91 147.904C1374.05 148.56 1374.92 149.496 1375.53 150.712C1376.15 151.928 1376.47 153.384 1376.47 155.08C1376.47 156.776 1376.15 158.232 1375.53 159.448C1374.92 160.664 1374.05 161.6 1372.91 162.256C1371.78 162.912 1370.43 163.24 1368.86 163.24C1367.29 163.24 1365.93 162.912 1364.78 162.256C1363.64 161.6 1362.76 160.664 1362.14 159.448C1361.53 158.232 1361.23 156.776 1361.23 155.08C1361.23 153.384 1361.53 151.928 1362.14 150.712C1362.76 149.496 1363.64 148.56 1364.78 147.904C1365.93 147.248 1367.29 146.92 1368.86 146.92ZM1368.86 149.632C1367.96 149.632 1367.2 149.84 1366.58 150.256C1365.95 150.672 1365.47 151.288 1365.14 152.104C1364.82 152.904 1364.66 153.896 1364.66 155.08C1364.66 156.248 1364.82 157.24 1365.14 158.056C1365.47 158.872 1365.95 159.488 1366.58 159.904C1367.2 160.32 1367.96 160.528 1368.86 160.528C1369.74 160.528 1370.49 160.32 1371.11 159.904C1371.74 159.488 1372.21 158.872 1372.53 158.056C1372.87 157.24 1373.03 156.248 1373.03 155.08C1373.03 153.896 1372.87 152.904 1372.53 152.104C1372.21 151.288 1371.74 150.672 1371.11 150.256C1370.49 149.84 1369.74 149.632 1368.86 149.632ZM1384.27 163.24C1383.05 163.24 1381.94 163.024 1380.93 162.592C1379.94 162.16 1379.13 161.552 1378.51 160.768L1380.41 158.848C1380.79 159.424 1381.3 159.896 1381.94 160.264C1382.58 160.632 1383.34 160.816 1384.22 160.816C1384.85 160.816 1385.34 160.728 1385.71 160.552C1386.09 160.36 1386.29 160.064 1386.29 159.664C1386.29 159.408 1386.2 159.192 1386.02 159.016C1385.85 158.824 1385.49 158.672 1384.97 158.56L1382.85 158.128C1381.46 157.84 1380.47 157.408 1379.88 156.832C1379.3 156.24 1379.01 155.48 1379.01 154.552C1379.01 153.896 1379.21 153.28 1379.59 152.704C1379.99 152.128 1380.58 151.664 1381.37 151.312C1382.15 150.944 1383.13 150.76 1384.29 150.76C1385.49 150.76 1386.53 150.952 1387.41 151.336C1388.31 151.704 1389.01 152.256 1389.53 152.992L1387.56 154.912C1387.21 154.352 1386.74 153.928 1386.17 153.64C1385.61 153.336 1385.01 153.184 1384.39 153.184C1383.94 153.184 1383.56 153.232 1383.24 153.328C1382.92 153.424 1382.68 153.56 1382.52 153.736C1382.36 153.896 1382.28 154.104 1382.28 154.36C1382.28 154.616 1382.39 154.84 1382.61 155.032C1382.84 155.208 1383.25 155.36 1383.84 155.488L1386.29 155.992C1387.47 156.232 1388.32 156.64 1388.83 157.216C1389.34 157.776 1389.6 158.456 1389.6 159.256C1389.6 160.024 1389.39 160.712 1388.97 161.32C1388.57 161.912 1387.97 162.384 1387.17 162.736C1386.39 163.072 1385.42 163.24 1384.27 163.24ZM1406.88 147.16C1408.67 147.16 1410.08 147.592 1411.1 148.456C1412.12 149.32 1412.64 150.48 1412.64 151.936C1412.64 153.488 1412.12 154.68 1411.1 155.512C1410.08 156.328 1408.68 156.736 1406.9 156.736L1406.56 156.928H1403.16V163H1399.89V147.16H1406.88ZM1406.49 154.408C1407.42 154.408 1408.11 154.224 1408.56 153.856C1409.02 153.472 1409.25 152.888 1409.25 152.104C1409.25 151.32 1409.02 150.744 1408.56 150.376C1408.11 149.992 1407.42 149.8 1406.49 149.8H1403.16V154.408H1406.49ZM1408.44 155.104L1413.57 163H1409.85L1405.6 156.064L1408.44 155.104ZM1421.2 163.24C1419.94 163.24 1418.83 162.992 1417.89 162.496C1416.96 162 1416.24 161.288 1415.73 160.36C1415.22 159.432 1414.96 158.312 1414.96 157C1414.96 155.688 1415.22 154.568 1415.73 153.64C1416.24 152.712 1416.95 152 1417.87 151.504C1418.79 151.008 1419.85 150.76 1421.03 150.76C1422.25 150.76 1423.28 151.008 1424.13 151.504C1424.98 151.984 1425.63 152.648 1426.07 153.496C1426.52 154.328 1426.75 155.28 1426.75 156.352C1426.75 156.672 1426.74 156.976 1426.72 157.264C1426.71 157.552 1426.68 157.808 1426.65 158.032H1417.07V155.752H1425.21L1423.63 156.328C1423.63 155.32 1423.39 154.544 1422.93 154C1422.48 153.456 1421.84 153.184 1421.01 153.184C1420.4 153.184 1419.87 153.328 1419.43 153.616C1418.99 153.904 1418.67 154.336 1418.44 154.912C1418.22 155.472 1418.11 156.184 1418.11 157.048C1418.11 157.896 1418.23 158.6 1418.47 159.16C1418.72 159.704 1419.07 160.112 1419.52 160.384C1419.99 160.656 1420.54 160.792 1421.18 160.792C1421.88 160.792 1422.45 160.656 1422.88 160.384C1423.31 160.112 1423.65 159.736 1423.89 159.256L1426.51 160.264C1426.25 160.888 1425.86 161.424 1425.33 161.872C1424.82 162.32 1424.2 162.664 1423.48 162.904C1422.78 163.128 1422.02 163.24 1421.2 163.24ZM1434.33 163.24C1433.12 163.24 1432 163.024 1431 162.592C1430 162.16 1429.2 161.552 1428.57 160.768L1430.47 158.848C1430.85 159.424 1431.36 159.896 1432 160.264C1432.64 160.632 1433.4 160.816 1434.28 160.816C1434.91 160.816 1435.4 160.728 1435.77 160.552C1436.16 160.36 1436.35 160.064 1436.35 159.664C1436.35 159.408 1436.26 159.192 1436.08 159.016C1435.91 158.824 1435.56 158.672 1435.03 158.56L1432.92 158.128C1431.52 157.84 1430.53 157.408 1429.94 156.832C1429.36 156.24 1429.08 155.48 1429.08 154.552C1429.08 153.896 1429.27 153.28 1429.65 152.704C1430.05 152.128 1430.64 151.664 1431.43 151.312C1432.21 150.944 1433.19 150.76 1434.36 150.76C1435.56 150.76 1436.6 150.952 1437.48 151.336C1438.37 151.704 1439.08 152.256 1439.59 152.992L1437.62 154.912C1437.27 154.352 1436.8 153.928 1436.23 153.64C1435.67 153.336 1435.08 153.184 1434.45 153.184C1434 153.184 1433.62 153.232 1433.3 153.328C1432.98 153.424 1432.74 153.56 1432.58 153.736C1432.42 153.896 1432.34 154.104 1432.34 154.36C1432.34 154.616 1432.45 154.84 1432.68 155.032C1432.9 155.208 1433.31 155.36 1433.9 155.488L1436.35 155.992C1437.53 156.232 1438.38 156.64 1438.89 157.216C1439.4 157.776 1439.66 158.456 1439.66 159.256C1439.66 160.024 1439.45 160.712 1439.04 161.32C1438.64 161.912 1438.04 162.384 1437.24 162.736C1436.45 163.072 1435.48 163.24 1434.33 163.24ZM1446.46 163.24C1445.66 163.24 1444.94 163.096 1444.3 162.808C1443.66 162.52 1443.15 162.064 1442.76 161.44C1442.39 160.8 1442.21 159.976 1442.21 158.968V151H1445.5V158.176C1445.5 159.104 1445.69 159.752 1446.07 160.12C1446.46 160.472 1447.01 160.648 1447.73 160.648C1448.07 160.648 1448.39 160.592 1448.71 160.48C1449.03 160.352 1449.31 160.16 1449.55 159.904C1449.81 159.648 1450.01 159.32 1450.15 158.92C1450.3 158.504 1450.37 158.016 1450.37 157.456V151H1453.66V163H1450.73L1450.61 160.912C1450.21 161.712 1449.66 162.304 1448.95 162.688C1448.27 163.056 1447.43 163.24 1446.46 163.24ZM1460.36 145.744V159.304C1460.36 159.864 1460.45 160.256 1460.65 160.48C1460.84 160.704 1461.16 160.816 1461.61 160.816C1461.88 160.816 1462.1 160.8 1462.28 160.768C1462.45 160.72 1462.68 160.656 1462.95 160.576L1462.66 162.736C1462.39 162.896 1462.05 163.016 1461.63 163.096C1461.23 163.192 1460.83 163.24 1460.43 163.24C1459.26 163.24 1458.41 162.96 1457.86 162.4C1457.33 161.824 1457.07 160.912 1457.07 159.664V145.744H1460.36ZM1468.61 147.328V159.088C1468.61 159.664 1468.75 160.088 1469.04 160.36C1469.34 160.616 1469.75 160.744 1470.26 160.744C1470.66 160.744 1471.02 160.688 1471.32 160.576C1471.62 160.448 1471.9 160.28 1472.14 160.072L1472.66 162.256C1472.28 162.56 1471.8 162.8 1471.22 162.976C1470.65 163.152 1470.04 163.24 1469.4 163.24C1468.6 163.24 1467.89 163.12 1467.26 162.88C1466.66 162.64 1466.18 162.256 1465.82 161.728C1465.49 161.2 1465.32 160.496 1465.32 159.616V148.24L1468.61 147.328ZM1472.45 151V153.448H1463.11V151H1472.45ZM1481.63 155.344C1481.63 154.656 1481.43 154.12 1481.03 153.736C1480.65 153.352 1480.13 153.16 1479.49 153.16C1478.9 153.16 1478.38 153.312 1477.93 153.616C1477.49 153.92 1477.16 154.424 1476.95 155.128L1474.14 154.264C1474.41 153.208 1475.01 152.36 1475.92 151.72C1476.85 151.08 1478.09 150.76 1479.64 150.76C1480.69 150.76 1481.61 150.928 1482.4 151.264C1483.18 151.584 1483.79 152.072 1484.22 152.728C1484.67 153.384 1484.89 154.208 1484.89 155.2V160.072C1484.89 160.68 1485.18 160.984 1485.76 160.984C1486.03 160.984 1486.29 160.944 1486.53 160.864L1486.33 162.904C1485.92 163.112 1485.4 163.216 1484.77 163.216C1484.21 163.216 1483.71 163.12 1483.26 162.928C1482.81 162.736 1482.46 162.448 1482.21 162.064C1481.95 161.664 1481.82 161.168 1481.82 160.576V160.48L1482.4 160.384C1482.3 160.992 1482.04 161.512 1481.61 161.944C1481.17 162.36 1480.65 162.68 1480.02 162.904C1479.41 163.128 1478.78 163.24 1478.13 163.24C1477.31 163.24 1476.61 163.12 1476.01 162.88C1475.42 162.624 1474.97 162.256 1474.65 161.776C1474.33 161.296 1474.17 160.704 1474.17 160C1474.17 159.104 1474.45 158.376 1475.03 157.816C1475.61 157.24 1476.43 156.848 1477.5 156.64L1482.01 155.728L1481.99 157.768L1479.11 158.344C1478.57 158.456 1478.15 158.608 1477.86 158.8C1477.59 158.976 1477.45 159.272 1477.45 159.688C1477.45 160.088 1477.6 160.392 1477.89 160.6C1478.19 160.808 1478.55 160.912 1478.97 160.912C1479.3 160.912 1479.63 160.872 1479.95 160.792C1480.27 160.712 1480.56 160.584 1480.81 160.408C1481.07 160.232 1481.27 159.992 1481.41 159.688C1481.56 159.384 1481.63 159.016 1481.63 158.584V155.344ZM1493.06 163.24C1492.07 163.24 1491.18 162.992 1490.4 162.496C1489.63 162 1489.02 161.288 1488.57 160.36C1488.14 159.432 1487.92 158.32 1487.92 157.024C1487.92 155.696 1488.16 154.568 1488.62 153.64C1489.08 152.696 1489.71 151.984 1490.49 151.504C1491.29 151.008 1492.19 150.76 1493.18 150.76C1494.24 150.76 1495.11 151.064 1495.8 151.672C1496.48 152.28 1496.93 153.064 1497.14 154.024L1496.83 154.408V145.744H1500.12V163H1497.16L1496.95 159.352L1497.36 159.544C1497.24 160.296 1496.99 160.952 1496.59 161.512C1496.19 162.056 1495.68 162.48 1495.08 162.784C1494.47 163.088 1493.8 163.24 1493.06 163.24ZM1494.02 160.72C1494.6 160.72 1495.09 160.576 1495.51 160.288C1495.92 159.984 1496.24 159.544 1496.47 158.968C1496.71 158.392 1496.83 157.704 1496.83 156.904C1496.83 156.136 1496.72 155.488 1496.49 154.96C1496.27 154.416 1495.95 154 1495.53 153.712C1495.12 153.424 1494.63 153.28 1494.07 153.28C1493.17 153.28 1492.47 153.6 1491.96 154.24C1491.46 154.864 1491.21 155.784 1491.21 157C1491.21 158.216 1491.46 159.144 1491.96 159.784C1492.45 160.408 1493.14 160.72 1494.02 160.72ZM1509.04 150.76C1510.26 150.76 1511.32 151.008 1512.24 151.504C1513.16 152 1513.88 152.712 1514.4 153.64C1514.92 154.568 1515.19 155.688 1515.19 157C1515.19 158.296 1514.92 159.416 1514.4 160.36C1513.88 161.288 1513.16 162 1512.24 162.496C1511.32 162.992 1510.26 163.24 1509.04 163.24C1507.84 163.24 1506.78 162.992 1505.85 162.496C1504.92 162 1504.2 161.288 1503.67 160.36C1503.16 159.416 1502.9 158.296 1502.9 157C1502.9 155.688 1503.16 154.568 1503.67 153.64C1504.2 152.712 1504.92 152 1505.85 151.504C1506.78 151.008 1507.84 150.76 1509.04 150.76ZM1509.04 153.208C1508.44 153.208 1507.92 153.352 1507.48 153.64C1507.07 153.912 1506.75 154.328 1506.52 154.888C1506.3 155.448 1506.19 156.152 1506.19 157C1506.19 157.848 1506.3 158.552 1506.52 159.112C1506.75 159.672 1507.07 160.096 1507.48 160.384C1507.92 160.656 1508.44 160.792 1509.04 160.792C1509.64 160.792 1510.14 160.656 1510.56 160.384C1510.99 160.096 1511.32 159.672 1511.54 159.112C1511.76 158.552 1511.88 157.848 1511.88 157C1511.88 156.152 1511.76 155.448 1511.54 154.888C1511.32 154.328 1510.99 153.912 1510.56 153.64C1510.14 153.352 1509.64 153.208 1509.04 153.208ZM1522.74 163.24C1521.52 163.24 1520.41 163.024 1519.4 162.592C1518.41 162.16 1517.6 161.552 1516.98 160.768L1518.87 158.848C1519.26 159.424 1519.77 159.896 1520.41 160.264C1521.05 160.632 1521.81 160.816 1522.69 160.816C1523.31 160.816 1523.81 160.728 1524.18 160.552C1524.56 160.36 1524.75 160.064 1524.75 159.664C1524.75 159.408 1524.67 159.192 1524.49 159.016C1524.31 158.824 1523.96 158.672 1523.43 158.56L1521.32 158.128C1519.93 157.84 1518.94 157.408 1518.35 156.832C1517.77 156.24 1517.48 155.48 1517.48 154.552C1517.48 153.896 1517.67 153.28 1518.06 152.704C1518.46 152.128 1519.05 151.664 1519.83 151.312C1520.62 150.944 1521.59 150.76 1522.76 150.76C1523.96 150.76 1525 150.952 1525.88 151.336C1526.78 151.704 1527.48 152.256 1527.99 152.992L1526.03 154.912C1525.67 154.352 1525.21 153.928 1524.63 153.64C1524.07 153.336 1523.48 153.184 1522.86 153.184C1522.41 153.184 1522.03 153.232 1521.71 153.328C1521.39 153.424 1521.15 153.56 1520.99 153.736C1520.83 153.896 1520.75 154.104 1520.75 154.36C1520.75 154.616 1520.86 154.84 1521.08 155.032C1521.31 155.208 1521.71 155.36 1522.31 155.488L1524.75 155.992C1525.94 156.232 1526.79 156.64 1527.3 157.216C1527.81 157.776 1528.07 158.456 1528.07 159.256C1528.07 160.024 1527.86 160.712 1527.44 161.32C1527.04 161.912 1526.44 162.384 1525.64 162.736C1524.86 163.072 1523.89 163.24 1522.74 163.24Z" fill="white"/>
<defs>
<filter id="filter0_b_137_250" x="-2.5" y="-17" width="146" height="146" filterUnits="userSpaceOnUse" color-interpolation-filters="sRGB">
<feFlood flood-opacity="0" result="BackgroundImageFix"/>
<feGaussianBlur in="BackgroundImageFix" stdDeviation="10"/>
<feComposite in2="SourceAlpha" operator="in" result="effect1_backgroundBlur_137_250"/>
<feBlend mode="normal" in="SourceGraphic" in2="effect1_backgroundBlur_137_250" result="shape"/>
</filter>
<filter id="filter1_b_137_250" x="365.5" y="-17" width="146" height="146" filterUnits="userSpaceOnUse" color-interpolation-filters="sRGB">
<feFlood flood-opacity="0" result="BackgroundImageFix"/>
<feGaussianBlur in="BackgroundImageFix" stdDeviation="10"/>
<feComposite in2="SourceAlpha" operator="in" result="effect1_backgroundBlur_137_250"/>
<feBlend mode="normal" in="SourceGraphic" in2="effect1_backgroundBlur_137_250" result="shape"/>
</filter>
<filter id="filter2_b_137_250" x="799.5" y="-17" width="146" height="146" filterUnits="userSpaceOnUse" color-interpolation-filters="sRGB">
<feFlood flood-opacity="0" result="BackgroundImageFix"/>
<feGaussianBlur in="BackgroundImageFix" stdDeviation="10"/>
<feComposite in2="SourceAlpha" operator="in" result="effect1_backgroundBlur_137_250"/>
<feBlend mode="normal" in="SourceGraphic" in2="effect1_backgroundBlur_137_250" result="shape"/>
</filter>
<filter id="filter3_b_137_250" x="1287.5" y="-17" width="146" height="146" filterUnits="userSpaceOnUse" color-interpolation-filters="sRGB">
<feFlood flood-opacity="0" result="BackgroundImageFix"/>
<feGaussianBlur in="BackgroundImageFix" stdDeviation="10"/>
<feComposite in2="SourceAlpha" operator="in" result="effect1_backgroundBlur_137_250"/>
<feBlend mode="normal" in="SourceGraphic" in2="effect1_backgroundBlur_137_250" result="shape"/>
</filter>
<linearGradient id="paint0_linear_137_250" x1="17.5" y1="3" x2="95.5246" y2="126.652" gradientUnits="userSpaceOnUse">
<stop stop-color="white" stop-opacity="0.1"/>
<stop offset="1" stop-color="white" stop-opacity="0.05"/>
</linearGradient>
<linearGradient id="paint1_linear_137_250" x1="385.5" y1="3" x2="463.525" y2="126.652" gradientUnits="userSpaceOnUse">
<stop stop-color="white" stop-opacity="0.1"/>
<stop offset="1" stop-color="white" stop-opacity="0.05"/>
</linearGradient>
<linearGradient id="paint2_linear_137_250" x1="819.5" y1="3" x2="897.525" y2="126.652" gradientUnits="userSpaceOnUse">
<stop stop-color="white" stop-opacity="0.1"/>
<stop offset="1" stop-color="white" stop-opacity="0.05"/>
</linearGradient>
<linearGradient id="paint3_linear_137_250" x1="1307.5" y1="3" x2="1385.52" y2="126.652" gradientUnits="userSpaceOnUse">
<stop stop-color="white" stop-opacity="0.1"/>
<stop offset="1" stop-color="white" stop-opacity="0.05"/>
</linearGradient>
<clipPath id="clip0_137_250">
<rect width="48" height="48" fill="white" transform="translate(414.5 32)"/>
</clipPath>
</defs>
</svg>
