<svg width="32" height="32" viewBox="0 0 32 32" fill="none" xmlns="http://www.w3.org/2000/svg">
<g clip-path="url(#clip0_117_228)">
<path d="M12.9999 32.0008C12.6839 32.0024 12.3749 31.9075 12.1142 31.7288C11.8535 31.5501 11.6536 31.2962 11.5411 31.0008L9.05113 24.5258C9.0007 24.3953 8.92355 24.2768 8.82464 24.1779C8.72573 24.079 8.60723 24.0019 8.47676 23.9514L1.99988 21.4596C1.70485 21.3463 1.45108 21.1463 1.27208 20.8858C1.09308 20.6254 0.997252 20.3168 0.997252 20.0008C0.997252 19.6848 1.09308 19.3762 1.27208 19.1158C1.45108 18.8553 1.70485 18.6553 1.99988 18.5421L8.47488 16.0521C8.60536 16.0016 8.72385 15.9245 8.82277 15.8256C8.92168 15.7267 8.99883 15.6082 9.04926 15.4777L11.5411 9.0008C11.6544 8.70577 11.8544 8.452 12.1148 8.273C12.3753 8.094 12.6839 7.99817 12.9999 7.99817C13.3159 7.99817 13.6245 8.094 13.8849 8.273C14.1454 8.452 14.3454 8.70577 14.4586 9.0008L16.9486 15.4758C16.9991 15.6063 17.0762 15.7248 17.1751 15.8237C17.274 15.9226 17.3925 15.9997 17.523 16.0502L23.9605 18.5271C24.2676 18.6409 24.5321 18.8465 24.7181 19.1161C24.904 19.3856 25.0024 19.7059 24.9999 20.0333C24.9951 20.3438 24.8973 20.6458 24.719 20.9C24.5407 21.1543 24.2902 21.3492 23.9999 21.4596L17.5249 23.9496C17.3944 24 17.2759 24.0771 17.177 24.176C17.0781 24.275 17.0009 24.3935 16.9505 24.5239L14.4586 31.0008C14.3462 31.2962 14.1462 31.5501 13.8856 31.7288C13.6249 31.9075 13.3159 32.0024 12.9999 32.0008Z" fill="white"/>
<path d="M5.49988 11.0008C5.3146 11.0008 5.13368 10.9447 4.98094 10.8398C4.8282 10.7349 4.71082 10.5862 4.64426 10.4133L3.59051 7.6733C3.56767 7.61338 3.53242 7.55896 3.48707 7.51361C3.44173 7.46827 3.38731 7.43302 3.32738 7.41018L0.587382 6.35643C0.414494 6.28985 0.26583 6.17246 0.160977 6.01972C0.0561237 5.86699 0 5.68607 0 5.5008C0 5.31554 0.0561237 5.13462 0.160977 4.98188C0.26583 4.82915 0.414494 4.71176 0.587382 4.64518L3.32738 3.59143C3.38725 3.56849 3.44161 3.5332 3.48695 3.48787C3.53228 3.44254 3.56756 3.38817 3.59051 3.3283L4.63488 0.612679C4.69378 0.452805 4.79513 0.312005 4.92805 0.205409C5.06096 0.0988143 5.22041 0.0304551 5.38926 0.00767871C5.59197 -0.0169649 5.79712 0.0267717 5.97216 0.131953C6.14719 0.237135 6.28211 0.397741 6.35551 0.588304L7.40926 3.3283C7.4322 3.38817 7.46748 3.44254 7.51282 3.48787C7.55815 3.5332 7.61252 3.56849 7.67238 3.59143L10.4124 4.64518C10.5853 4.71176 10.7339 4.82915 10.8388 4.98188C10.9436 5.13462 10.9998 5.31554 10.9998 5.5008C10.9998 5.68607 10.9436 5.86699 10.8388 6.01972C10.7339 6.17246 10.5853 6.28985 10.4124 6.35643L7.67238 7.41018C7.61246 7.43302 7.55804 7.46827 7.51269 7.51361C7.46734 7.55896 7.4321 7.61338 7.40926 7.6733L6.35551 10.4133C6.28895 10.5862 6.17157 10.7349 6.01883 10.8398C5.86609 10.9447 5.68516 11.0008 5.49988 11.0008Z" fill="white"/>
<path d="M24.9999 16.0008C24.7978 16.0007 24.6004 15.9394 24.4338 15.825C24.2672 15.7105 24.1393 15.5482 24.0668 15.3596L22.6393 11.6489C22.6141 11.5835 22.5756 11.5242 22.526 11.4746C22.4765 11.4251 22.4171 11.3865 22.3518 11.3614L18.6411 9.93393C18.4526 9.86129 18.2905 9.73326 18.1762 9.56669C18.0619 9.40012 18.0007 9.20283 18.0007 9.0008C18.0007 8.79878 18.0619 8.60149 18.1762 8.43492C18.2905 8.26835 18.4526 8.14032 18.6411 8.06768L22.3518 6.64018C22.4171 6.61507 22.4765 6.5765 22.526 6.52697C22.5756 6.47744 22.6141 6.41806 22.6393 6.35268L24.0561 2.6683C24.1208 2.49407 24.2315 2.34063 24.3765 2.22431C24.5214 2.10798 24.6952 2.03312 24.8793 2.00768C25.1005 1.9809 25.3243 2.02877 25.5152 2.1437C25.7061 2.25863 25.8531 2.43403 25.933 2.64205L27.3605 6.35268C27.3856 6.41806 27.4242 6.47744 27.4737 6.52697C27.5232 6.5765 27.5826 6.61507 27.648 6.64018L31.3586 8.06768C31.5471 8.14032 31.7092 8.26835 31.8236 8.43492C31.9379 8.60149 31.9991 8.79878 31.9991 9.0008C31.9991 9.20283 31.9379 9.40012 31.8236 9.56669C31.7092 9.73326 31.5471 9.86129 31.3586 9.93393L27.648 11.3614C27.5826 11.3865 27.5232 11.4251 27.4737 11.4746C27.4242 11.5242 27.3856 11.5835 27.3605 11.6489L25.933 15.3596C25.8605 15.5482 25.7325 15.7105 25.5659 15.825C25.3994 15.9394 25.202 16.0007 24.9999 16.0008Z" fill="white"/>
</g>
<defs>
<clipPath id="clip0_117_228">
<rect width="32" height="32" fill="white"/>
</clipPath>
</defs>
</svg>
