<svg width="503" height="205" viewBox="0 0 503 205" fill="none" xmlns="http://www.w3.org/2000/svg">
<path d="M1.44 45V0.839996H31.136V7.944H9.248V18.568H29.216V25.672H9.248V37.896H31.136V45H1.44ZM36.1685 43.4L50.2485 22.28L37.0005 2.44L37.7685 0.839996H44.6165L54.5365 16.072L64.5205 0.839996H71.3685L72.1365 2.44L58.8885 22.28L72.9685 43.4L72.2005 45H65.3525L54.5365 28.488L43.7845 45H36.9365L36.1685 43.4ZM80.2525 45V0.839996H101.501C108.455 0.839996 111.933 4.31733 111.933 11.272V19.784C111.933 26.696 108.455 30.152 101.501 30.152H88.0605V45H80.2525ZM88.0605 23.048H101.309C103.186 23.048 104.125 22.1093 104.125 20.232V10.696C104.125 8.86133 103.186 7.944 101.309 7.944H88.0605V23.048ZM120.878 45V0.839996H128.686V37.896H148.654V45H120.878ZM154.988 34.568V11.272C154.988 4.31733 158.465 0.839996 165.42 0.839996H180.076C187.03 0.839996 190.508 4.31733 190.508 11.272V34.568C190.508 41.5227 187.03 45 180.076 45H165.42C158.465 45 154.988 41.5227 154.988 34.568ZM162.796 35.144C162.796 36.9787 163.734 37.896 165.612 37.896H179.884C181.761 37.896 182.7 36.9787 182.7 35.144V10.696C182.7 8.86133 181.761 7.944 179.884 7.944H165.612C163.734 7.944 162.796 8.86133 162.796 10.696V35.144ZM200.753 45V0.839996H222.001C228.955 0.839996 232.433 4.31733 232.433 11.272V18.504C232.433 23.88 230.299 27.144 226.033 28.296L233.713 43.336L232.753 45H226.097L217.905 28.872H208.561V45H200.753ZM208.561 21.768H221.809C223.686 21.768 224.625 20.8293 224.625 18.952V10.696C224.625 8.86133 223.686 7.944 221.809 7.944H208.561V21.768ZM242.003 45V0.839996H271.699V7.944H249.811V18.568H269.779V25.672H249.811V37.896H271.699V45H242.003ZM295.69 45V0.839996H304.202L323.786 32.328V0.839996H331.594V45H323.146L303.498 13.512V45H295.69ZM341.863 34.568V11.272C341.863 4.31733 345.34 0.839996 352.295 0.839996H366.951C373.905 0.839996 377.383 4.31733 377.383 11.272V34.568C377.383 41.5227 373.905 45 366.951 45H352.295C345.34 45 341.863 41.5227 341.863 34.568ZM349.671 35.144C349.671 36.9787 350.609 37.896 352.487 37.896H366.759C368.636 37.896 369.575 36.9787 369.575 35.144V10.696C369.575 8.86133 368.636 7.944 366.759 7.944H352.487C350.609 7.944 349.671 8.86133 349.671 10.696V35.144ZM383.404 2.376L384.428 0.839996H391.212L402.156 37.896H403.372L414.316 0.839996H421.164L422.124 2.376L409.068 45H396.396L383.404 2.376ZM428.113 34.568V11.272C428.113 4.31733 431.59 0.839996 438.545 0.839996H453.201C460.155 0.839996 463.633 4.31733 463.633 11.272V34.568C463.633 41.5227 460.155 45 453.201 45H438.545C431.59 45 428.113 41.5227 428.113 34.568ZM435.921 35.144C435.921 36.9787 436.859 37.896 438.737 37.896H453.009C454.886 37.896 455.825 36.9787 455.825 35.144V10.696C455.825 8.86133 454.886 7.944 453.009 7.944H438.737C436.859 7.944 435.921 8.86133 435.921 10.696V35.144ZM471.958 42.056V37.896H491.734C493.611 37.896 494.55 36.9787 494.55 35.144V30.28C494.55 28.6587 493.824 27.6987 492.374 27.4L479.382 24.776C474.432 23.7947 471.958 20.4667 471.958 14.792V11.272C471.958 4.31733 475.435 0.839996 482.39 0.839996H497.302L501.078 3.784V7.944H482.582C480.704 7.944 479.766 8.86133 479.766 10.696V14.984C479.766 16.6053 480.491 17.5653 481.942 17.864L494.934 20.424C499.883 21.448 502.358 24.776 502.358 30.408V34.568C502.358 41.5227 498.88 45 491.926 45H475.734L471.958 42.056ZM0.8 114.568V91.272C0.8 84.3173 4.27733 80.84 11.232 80.84H28.64L32.416 83.784V87.944H11.424C9.54667 87.944 8.608 88.8613 8.608 90.696V115.144C8.608 116.979 9.54667 117.896 11.424 117.896H32.416V122.056L28.64 125H11.232C4.27733 125 0.8 121.523 0.8 114.568ZM36.841 123.464L50.473 80.84H62.633L76.201 123.464L75.241 125H68.649L65.641 115.272H47.401L44.329 125H37.865L36.841 123.464ZM49.577 108.168H63.529L57.129 87.944H55.913L49.577 108.168ZM82.8775 125V80.84H92.4775L105.726 109.128L118.974 80.84H128.574V125H120.702V94.152L109.054 118.984H102.334L90.6855 94.152V125H82.8775ZM139.44 125V80.84H147.248V125H139.44ZM158.128 125V80.84H166.64L186.224 112.328V80.84H194.032V125H185.583L165.936 93.512V125H158.128ZM204.94 125V80.84H212.748V98.568H231.372V80.84H239.18V125H231.372V105.672H212.748V125H204.94ZM249.425 114.568V91.272C249.425 84.3173 252.902 80.84 259.857 80.84H274.513C281.468 80.84 284.945 84.3173 284.945 91.272V114.568C284.945 121.523 281.468 125 274.513 125H259.857C252.902 125 249.425 121.523 249.425 114.568ZM257.233 115.144C257.233 116.979 258.172 117.896 260.049 117.896H274.321C276.198 117.896 277.137 116.979 277.137 115.144V90.696C277.137 88.8613 276.198 87.944 274.321 87.944H260.049C258.172 87.944 257.233 88.8613 257.233 90.696V115.144ZM293.27 122.056V117.896H313.046C314.923 117.896 315.862 116.979 315.862 115.144V110.28C315.862 108.659 315.137 107.699 313.686 107.4L300.694 104.776C295.745 103.795 293.27 100.467 293.27 94.792V91.272C293.27 84.3173 296.747 80.84 303.702 80.84H318.614L322.39 83.784V87.944H303.894C302.017 87.944 301.078 88.8613 301.078 90.696V94.984C301.078 96.6053 301.803 97.5653 303.254 97.864L316.246 100.424C321.195 101.448 323.67 104.776 323.67 110.408V114.568C323.67 121.523 320.193 125 313.238 125H297.046L293.27 122.056Z" fill="white"/>
<path d="M0.8 194.568V171.272C0.8 164.317 4.27733 160.84 11.232 160.84H25.888C32.8427 160.84 36.32 164.317 36.32 171.272V194.568C36.32 201.523 32.8427 205 25.888 205H11.232C4.27733 205 0.8 201.523 0.8 194.568ZM8.608 195.144C8.608 196.979 9.54667 197.896 11.424 197.896H25.696C27.5733 197.896 28.512 196.979 28.512 195.144V170.696C28.512 168.861 27.5733 167.944 25.696 167.944H11.424C9.54667 167.944 8.608 168.861 8.608 170.696V195.144ZM46.565 205V160.84H55.077L74.661 192.328V160.84H82.469V205H74.021L54.373 173.512V205H46.565ZM93.3775 205V160.84H101.186V197.896H121.154V205H93.3775ZM128.128 205V160.84H135.936V205H128.128ZM146.815 205V160.84H155.327L174.911 192.328V160.84H182.719V205H174.271L154.623 173.512V205H146.815ZM193.628 205V160.84H223.324V167.944H201.436V178.568H221.404V185.672H201.436V197.896H223.324V205H193.628Z" fill="#821EB1"/>
</svg>
