<svg width="234" height="234" viewBox="0 0 234 234" fill="none" xmlns="http://www.w3.org/2000/svg">
<circle cx="117" cy="117" r="115" fill="#D9D9D9" stroke="url(#paint0_linear_142_370)" stroke-width="4"/>
<path fill-rule="evenodd" clip-rule="evenodd" d="M76 110V117.8L82.7 123H98V166H91L84 171V179L98 179L145 179L145.2 179L159 179V171L152 166L145.2 166L145 166L112.4 166V150H142.2V137H112.4V123L145 123L145.2 123L159 123V115L152 110H145.2H145H124.157C124.319 108.814 124.4 107.548 124.4 106.2V99.8C124.4 90.6667 120.4 85.3 112.4 83.7L92.9 79.8C91.2333 79.4667 90.4 78.3667 90.4 76.5V70C90.4 68 91.4 67 93.4 67H122.4V59.2L115.7 54H92.8C91.8242 54 90.8908 54.0425 90 54.1275V54H83L76 59V67H76.2433C76.0811 68.1856 76 69.4522 76 70.8V76.4C76 85.5333 80 90.9 88 92.5L107.5 96.5C109.167 96.7667 110 97.8667 110 99.8V107C110 108.997 109.003 109.997 107.01 110H98L76 110Z" fill="#260608"/>
<defs>
<linearGradient id="paint0_linear_142_370" x1="25.5" y1="64.5" x2="198.5" y2="202" gradientUnits="userSpaceOnUse">
<stop offset="0.324377" stop-color="#4012C4"/>
<stop offset="1" stop-opacity="0"/>
</linearGradient>
</defs>
</svg>
