<svg width="598" height="476.96" viewBox="0 0 325 63" fill="none" xmlns="http://www.w3.org/2000/svg">
<path d="M2.6 43.4V39.5H18.1C19.1 39.5 19.6 39 19.6 38V34.4C19.6 33.4333 19.1833 32.8833 18.35 32.75L8.6 30.75C4.6 29.95 2.6 27.2667 2.6 22.7V19.9C2.6 14.3 5.4 11.5 11 11.5H22.45L25.8 14.1V18H11.3C10.3 18 9.8 18.5 9.8 19.5V22.75C9.8 23.6833 10.2167 24.2333 11.05 24.4L20.8 26.35C24.8 27.15 26.8 29.8333 26.8 34.4V37.6C26.8 43.2 24 46 18.4 46H5.95L2.6 43.4ZM30.2945 44.65L40.5445 11.5H51.5445L61.7945 44.65L60.8945 46H54.8945L52.7945 39H39.2945L37.1945 46H31.1945L30.2945 44.65ZM41.2445 32.5H50.8445L46.4445 18H45.6445L41.2445 32.5ZM66.7953 46V11.5H74.5953L88.2953 34.15V11.5H95.4953V46H87.6953L73.9953 23.35V46H66.7953ZM100.809 18V11.5H129.009V18H118.509V46H111.309V18H100.809ZM128.634 44.65L138.884 11.5H149.884L160.134 44.65L159.234 46H153.234L151.134 39H137.634L135.534 46H129.534L128.634 44.65ZM139.584 32.5H149.184L144.784 18H143.984L139.584 32.5ZM177.147 46V11.5H200.747V18H184.347V25H199.247V31.5H184.347V39.5H200.747V46H177.147ZM207.323 46V11.5H214.523V39.5H229.423V46H207.323ZM234.715 46V11.5H258.315V18H241.915V25H256.815V31.5H241.915V39.5H258.315V46H234.715ZM264.391 37.6V19.9C264.391 14.3 267.191 11.5 272.791 11.5H287.241L290.591 14.1V18H273.091C272.091 18 271.591 18.5 271.591 19.5V38C271.591 39 272.091 39.5 273.091 39.5H284.391V31.5H277.791V25H291.591V46H272.791C267.191 46 264.391 43.2 264.391 37.6ZM298.778 46V11.5H322.378V18H305.978V25H320.878V31.5H305.978V39.5H322.378V46H298.778Z" fill="#FEFEFE"/>
</svg>
