<svg width="48" height="48" viewBox="0 0 48 48" fill="none" xmlns="http://www.w3.org/2000/svg">
<mask id="mask0_117_473" style="mask-type:alpha" maskUnits="userSpaceOnUse" x="0" y="0" width="48" height="48">
<circle cx="23.8821" cy="23.8821" r="23.8821" fill="white"/>
</mask>
<g mask="url(#mask0_117_473)">
<path d="M23.4413 35.2002C11.7115 35.2002 12.1902 44.8034 12.1902 48.6451H35.4106C35.4106 43.459 35.1712 35.2002 23.4413 35.2002Z" fill="#323941"/>
<path d="M21.1504 26.5972H26.0395V36.7827C26.0395 36.7827 25.632 37.6447 23.5949 37.6447C21.5578 37.6447 21.1504 36.7827 21.1504 36.7827V26.5972Z" fill="#E59780"/>
<ellipse cx="34.3039" cy="20.0073" rx="1.62969" ry="2.69924" transform="rotate(8.66736 34.3039 20.0073)" fill="#E3827E"/>
<ellipse cx="13.6389" cy="20.0779" rx="1.62969" ry="2.85195" transform="rotate(-10.3706 13.6389 20.0779)" fill="#E3827E"/>
<path d="M33.4349 18.4687C34.0717 28.6584 27.2906 32.798 23.5636 32.798C19.8365 32.798 14.0107 28.6584 14.0107 17.5135C14.0107 11.1006 18.3433 8.61426 23.8561 8.61426C29.3689 8.61426 33.4349 12.0559 33.4349 18.4687Z" fill="#F5B5A4"/>
<path d="M23.8531 22.3745C23.3262 22.451 22.3585 22.7418 22.7034 23.2926C23.0484 23.8435 23.6136 23.5221 23.8531 23.2926" stroke="#AD6B68" stroke-width="0.455963" stroke-linecap="round"/>
<path d="M14.4279 20.2813L13.8168 20.0777V17.8369C13.4773 16.2752 12.5945 16.0035 12.3908 12.7441C12.0983 8.06331 17.7281 6.22567 22.7801 4.59598C27.8321 2.96629 32.7619 7.24436 31.9471 9.89217C34.5546 9.72921 37.0399 16.4109 33.7805 18.2441V20.6887H33.1694V18.2441C33.3731 15.1886 28.6877 17.8367 29.7063 12.9478C28.0766 14.17 18.9096 10.5033 18.0947 13.559C17.4429 16.0035 15.7181 17.2937 14.4279 17.4295V20.2813Z" fill="#323941"/>
<circle cx="20.607" cy="19.333" r="1.13724" fill="#34393C"/>
<circle cx="20.8908" cy="19.0485" r="0.284311" fill="#8C9AA3"/>
<path d="M18.2637 17.3593C18.2637 17.3593 19.8274 15.7957 21.3911 16.4211" stroke="#444D56" stroke-width="0.651376" stroke-linecap="round"/>
<path d="M29.5117 17.1943C29.5117 17.1943 27.948 15.6307 26.3843 16.2561" stroke="#444D56" stroke-width="0.651376" stroke-linecap="round"/>
<circle cx="27.2935" cy="19.3326" r="1.13724" fill="#34393C"/>
<circle cx="27.5783" cy="19.0485" r="0.284311" fill="#8C9AA3"/>
<path d="M21.3799 26.1279C22.1096 27.0719 24.0069 28.3935 25.7582 26.1279" stroke="#444D56" stroke-width="0.651376" stroke-linecap="round"/>
<circle cx="28.5641" cy="22.9718" r="1.22227" fill="#FF9692"/>
<circle cx="18.8492" cy="22.9718" r="1.22227" fill="#FF9692"/>
<path d="M19.9374 36.4219C19.8605 37.032 20.2602 38.2889 22.4738 38.4353C25.2408 38.6183 26.8549 37.7031 26.8549 36.971" stroke="white" stroke-width="0.651376" stroke-linecap="round"/>
</g>
</svg>
