<svg width="107" height="106" viewBox="0 0 107 106" fill="none" xmlns="http://www.w3.org/2000/svg">
<g filter="url(#filter0_b_137_274)">
<circle cx="53.5" cy="53" r="53" fill="url(#paint0_linear_137_274)"/>
</g>
<path d="M51.6318 45.0078L51.9998 44.9978H66.9998C68.6598 44.9977 70.2569 45.6326 71.4637 46.7725C72.6704 47.9123 73.3954 49.4706 73.4898 51.1278L73.4998 51.4978V66.4978C73.5 68.1581 72.8647 69.7555 71.7245 70.9623C70.5843 72.1691 69.0255 72.8938 67.3678 72.9878L66.9998 72.9978H51.9998C50.3396 72.998 48.7422 72.3627 47.5354 71.2225C46.3286 70.0823 45.6038 68.5235 45.5098 66.8658L45.4998 66.4998V51.4998C45.4997 49.8396 46.135 48.2422 47.2752 47.0354C48.4154 45.8286 49.9742 45.1038 51.6318 45.0098V45.0078ZM66.9998 47.9978H51.9998C51.1215 47.9979 50.2752 48.3282 49.6291 48.9232C48.9829 49.5182 48.5841 50.3344 48.5118 51.2098L48.4998 51.4978V66.4978C48.4999 67.3765 48.8305 68.2231 49.4259 68.8693C50.0214 69.5155 50.8381 69.914 51.7138 69.9858L51.9998 69.9978H66.9998C67.8785 69.9978 68.7251 69.6672 69.3713 69.0718C70.0175 68.4763 70.416 67.6596 70.4878 66.7838L70.4998 66.4978V51.4978C70.4998 50.5696 70.1311 49.6793 69.4747 49.023C68.8183 48.3666 67.9281 47.9978 66.9998 47.9978ZM59.4998 50.9998C59.8977 50.9998 60.2792 51.1579 60.5605 51.4392C60.8418 51.7205 60.9998 52.102 60.9998 52.4998V57.4958H65.9998C66.3977 57.4958 66.7792 57.6539 67.0605 57.9352C67.3418 58.2165 67.4998 58.598 67.4998 58.9958C67.4998 59.3937 67.3418 59.7752 67.0605 60.0565C66.7792 60.3378 66.3977 60.4958 65.9998 60.4958H60.9998V65.4998C60.9998 65.8977 60.8418 66.2792 60.5605 66.5605C60.2792 66.8418 59.8977 66.9998 59.4998 66.9998C59.102 66.9998 58.7205 66.8418 58.4392 66.5605C58.1579 66.2792 57.9998 65.8977 57.9998 65.4998V60.4958H52.9998C52.602 60.4958 52.2205 60.3378 51.9392 60.0565C51.6579 59.7752 51.4998 59.3937 51.4998 58.9958C51.4998 58.598 51.6579 58.2165 51.9392 57.9352C52.2205 57.6539 52.602 57.4958 52.9998 57.4958H57.9998V52.4998C57.9998 52.102 58.1579 51.7205 58.4392 51.4392C58.7205 51.1579 59.102 50.9998 59.4998 50.9998ZM60.6638 37.4658L60.7678 37.8198L62.1538 42.9958H59.0478L57.8718 38.5958C57.753 38.1516 57.5478 37.7352 57.268 37.3703C56.9881 37.0054 56.6391 36.6993 56.2409 36.4693C55.8427 36.2394 55.4031 36.0902 54.9471 36.0302C54.4912 35.9702 54.028 36.0007 53.5838 36.1198L39.0958 40.0038C38.2501 40.2306 37.5201 40.7662 37.0499 41.5049C36.5796 42.2435 36.4034 43.1316 36.5558 43.9938L36.6198 44.2898L40.5038 58.7778C40.686 59.4586 41.0695 60.0686 41.604 60.5279C42.1386 60.9871 42.7994 61.2743 43.4998 61.3518V64.3638C42.1995 64.2863 40.9524 63.8202 39.92 63.0257C38.8877 62.2312 38.1177 61.145 37.7098 59.9078L37.6058 59.5558L33.7238 45.0658C33.2938 43.4626 33.4935 41.7556 34.2819 40.2948C35.0703 38.8341 36.3876 37.7303 37.9638 37.2098L38.3198 37.1058L52.8078 33.2238C54.4111 32.7938 56.1181 32.9935 57.5788 33.7819C59.0396 34.5703 60.1434 35.8876 60.6638 37.4638V37.4658Z" fill="#F81DFB"/>
<defs>
<filter id="filter0_b_137_274" x="-19.5" y="-20" width="146" height="146" filterUnits="userSpaceOnUse" color-interpolation-filters="sRGB">
<feFlood flood-opacity="0" result="BackgroundImageFix"/>
<feGaussianBlur in="BackgroundImageFix" stdDeviation="10"/>
<feComposite in2="SourceAlpha" operator="in" result="effect1_backgroundBlur_137_274"/>
<feBlend mode="normal" in="SourceGraphic" in2="effect1_backgroundBlur_137_274" result="shape"/>
</filter>
<linearGradient id="paint0_linear_137_274" x1="0.5" y1="0" x2="78.5246" y2="123.652" gradientUnits="userSpaceOnUse">
<stop stop-color="white" stop-opacity="0.1"/>
<stop offset="1" stop-color="white" stop-opacity="0.05"/>
</linearGradient>
</defs>
</svg>
